<ttFont>
<head>
        <!-- Most of this table will be recalculated by the compiler -->
        <tableVersion value="1.0"/>
        <fontRevision value="1.002"/>
        <checkSumAdjustment value="0xe7736d53"/>
        <magicNumber value="0x5f0f3cf5"/>
        <flags value="00000000 00000011"/>
        <unitsPerEm value="1000"/>
        <created value="Thu Jan 14 16:22:35 2016"/>
        <modified value="Thu Jan 14 21:22:35 2016"/>
        <xMin value="-1564"/>
        <yMin value="-288"/>
        <xMax value="630"/>
        <yMax value="1144"/>
        <macStyle value="00000000 00000000"/>
        <lowestRecPPEM value="3"/>
        <fontDirectionHint value="2"/>
        <indexToLocFormat value="0"/>
        <glyphDataFormat value="0"/>
    </head>
                    <CharString index="0">
                        rmoveto
8 69 -98 callgsubr
-159 83 -89 307 -1 hvcurveto
-173 446 -88 callgsubr
                    </CharString>
                    <CharString index="1">
                        -49 callgsubr
-65 callsubr
-199 80 -112 138 vhcurveto
8 581 rmoveto
95 52 -90 -170 -166 -49 -86 -92 -96 -51 90 170 166 48 86 93 hvcurveto
endchar
                    </CharString>
                    <CharString index="2">
                        -106 callgsubr
endchar
                    </CharString>
                    <CharString index="3">
                        rmoveto
71 66 56 92 56 hvcurveto
-48 25 rlineto
-70 -47 -39 -37 -52 hhcurveto
-49 -37 31 80 -49 hvcurveto
-57 -33 rlineto
-97 54 61 -47 70 hhcurveto
return
                    </CharString>
                    <CharString index="4">
                        87 hlineto
15 117 21 236 13 267 rrcurveto
-78 hlineto
-5 -124 -16 -329 -7 -61 rrcurveto
-3 hlineto
-30 110 -30 111 -29 109 rrcurveto
-50 hlineto
-28 -108 -25 -100 -33 -122 rrcurveto
-4 hlineto
-6 61 -18 329 -5 124 rrcurveto
-82 hlineto
13 -267 20 -236 15 -117 rrcurveto
88 hlineto
87 330 rlineto
endchar
                    </CharString>
                    <CharString index="5">
                        rmoveto
84 71 55 82 118 -145 32 -99 -82 hvcurveto
-59 callgsubr
-79 callsubr
                    </CharString>
                    <CharString index="6">
                        rmoveto
51 49 -176 144 rlineto
-4 hlineto
-176 -153 40 -39 132 113 rlineto
return
                    </CharString>
                    <CharString index="7">
                        rmoveto
-57 callgsubr
-77 callsubr
                    </CharString>
                    <CharString index="8">
                        rmoveto
-100 callgsubr
return
                    </CharString>
                    <CharString index="9">
                        -7 -140 -7 -118 -8 -132 rrcurveto
-4 hlineto
-10 32 -70 199 -8 25 rrcurveto
-50 hlineto
-7 -24 -69 -199 -10 -31 rrcurveto
-4 hlineto
-10 132 -7 117 -7 139 rrcurveto
-80 hlineto
11 -184 21 -190 18 -116 rrcurveto
73 hlineto
93 274 rlineto
endchar
                    </CharString>
                    <CharString index="10">
                        rmoveto
hintmask 00111100
-70 callsubr
hintmask 01011100
-92 callgsubr
hintmask 10011100
-20 callsubr
hintmask 00111100
-94 callsubr
                    </CharString>
                    <CharString index="11">
                        129 89 71 65 75 vvcurveto
66 -61 53 -208 -1 vhcurveto
-5 -58 rlineto
162 -3 46 -27 -47 vvcurveto
-60 -78 -59 -145 -97 vhcurveto
7 -53 rlineto
return
                    </CharString>
                    <CharString index="12">
                        57 -213 vlineto
-96 callsubr
return
                    </CharString>
                    <CharString index="13">
                        -160 554 -90 callgsubr
                    </CharString>
                    <CharString index="14">
                        -72 callgsubr
-33 callgsubr
-14 callgsubr
return
                    </CharString>
                    <CharString index="15">
                        165 122 -4 53 rlineto
-269 -57 hlineto
195 2 rlineto
-3 vlineto
-162 -121 rlineto
-33 vlineto
return
                    </CharString>
                    <CharString index="16">
                        78 -263 rmoveto
-56 -31 26 35 31 27 26 47 19 hvcurveto
52 -25 48 -23 -34 vvcurveto
-31 -33 -24 -54 vhcurveto
endchar
                    </CharString>
                    <CharString index="17">
                        rmoveto
hintmask 0010101110000000
75 -61 callsubr
hintmask 1000011110000000
-83 callgsubr
90 callgsubr
-73 callgsubr
                    </CharString>
                    <CharString index="18">
                        64 callgsubr
-82 callsubr
endchar
                    </CharString>
                    <CharString index="19">
                        724 -107 callgsubr
return
                    </CharString>
                    <CharString index="20">
                        -71 313 rmoveto
27 28 24 52 52 30 -24 -33 -31 -28 -25 -44 -18 vhcurveto
-48 23 -42 23 34 vvcurveto
return
                    </CharString>
                    <CharString index="21">
                        -86 callgsubr
hintmask 01011110
43 callgsubr
hintmask 00111110
-102 callgsubr
hintmask 10011110
-45 callsubr
hintmask 01011110
-33 callsubr
                    </CharString>
                    <CharString index="22">
                        rmoveto
104 68 87 126 124 -58 77 -103 -104 -67 -87 -126 -125 58 -76 102 hvcurveto
5 359 rmoveto
66 35 -58 -98 -93 -33 -55 -66 -66 -35 58 98 93 32 55 67 hvcurveto
endchar
                    </CharString>
                    <CharString index="23">
                        -38 callsubr
-35 callsubr
-51 callsubr
                    </CharString>
                    <CharString index="24">
                        rmoveto
-2 80 1 96 128 vvcurveto
-78 hlineto
-92 2 -93 1 -67 vhcurveto
-198 -13 -64 98 165 vvcurveto
138 49 102 267 -1 vhcurveto
-5 80 rlineto
-304 -11 -92 -146 -177 vvcurveto
-217 128 -133 295 63 vhcurveto
return
                    </CharString>
                    <CharString index="25">
                        -48 callsubr
-15 callsubr
rlinecurve
203 1 -2 callsubr
return
                    </CharString>
                    <CharString index="26">
                        rmoveto
-41 callgsubr
-153 -66 388 hlineto
6 66 rlineto
-158 hlineto
endchar
                    </CharString>
                    <CharString index="27">
                        -138 hmoveto
-97 callgsubr
return
                    </CharString>
                    <CharString index="28">
                        -104 63 -55 91 vhcurveto
6 53 rmoveto
-56 -42 37 77 hvcurveto
4 vlineto
89 59 96 -20 -78 vvcurveto
-49 -38 -30 -49 vhcurveto
endchar
                    </CharString>
                    <CharString index="29">
                        rmoveto
-84 callgsubr
                    </CharString>
                    <CharString index="30">
                        -5 -90 -5 -5 hhcurveto
22 -58 5 -64 -33 -70 rrcurveto
endchar
                    </CharString>
                    <CharString index="31">
                        rmoveto
-1 -77 rlineto
287 -16 107 101 95 -52 callsubr
-30 callsubr
return
                    </CharString>
                    <CharString index="32">
                        -61 -40 30 52 67 59 39 179 -19 hvcurveto
-48 1 -36 1 -32 vhcurveto
return
                    </CharString>
                    <CharString index="33">
                        rmoveto
47 18 -52 -100 -1 hvcurveto
-135 -2 rlineto
107 3 23 47 45 hhcurveto
hintmask 1010011110000000
-206 -371 rmoveto
-35 -24 25 52 60 40 28 84 hvcurveto
-43 4 -38 11 -32 vhcurveto
-31 -20 -27 -21 -33 hhcurveto
hintmask 0101011110000000
328 -64 rmoveto
7 68 -166 4 -33 44 -1 114 rlinecurve
209 5 rlineto
167 11 -44 100 -93 hhcurveto
-54 -41 -31 -55 -25 hvcurveto
hintmask 1010101110000000
-28 58 -60 19 -118 7 -6 -69 rcurveline
144 -9 32 -25 3 -116 rrcurveto
-135 -3 -65 -57 -99 vvcurveto
-78 44 -45 62 59 44 36 40 26 vhcurveto
hintmask 0101011110000000
35 -48 68 -26 125 -1 rrcurveto
endchar
                    </CharString>
                    <CharString index="34">
                        -63 callgsubr
-184 -62 vlineto
endchar
                    </CharString>
                    <CharString index="35">
                        -55 125 -56 142 -49 125 -83 -5 rcurveline
49 -120 94 -227 57 -125 9 -2 rcurveline
-34 -80 -29 -17 -125 -19 rrcurveto
endchar
                    </CharString>
                    <CharString index="36">
                        -51 callgsubr
275 -15 87 77 80 -24 callsubr
return
                    </CharString>
                    <CharString index="37">
                        84 6 -43 callgsubr
74 callsubr
hlineto
return
                    </CharString>
                    <CharString index="38">
                        rmoveto
hintmask 00110111
-36 callsubr
hintmask 01011011
-56 callgsubr
endchar
                    </CharString>
                    <CharString index="39">
                        rmoveto
121 57 65 80 33 29 -11 -21 23 vhcurveto
-195 -282 rlineto
-17 32 -10 43 53 vvcurveto
141 -199 rmoveto
-32 -29 10 20 -22 hvcurveto
195 282 rlineto
17 -32 9 -42 -51 vvcurveto
-122 -56 -65 -82 vhcurveto
-13 -66 rmoveto
126 105 106 162 hvcurveto
hintmask 10011100
74 -19 60 -33 42 vhcurveto
42 61 rlineto
hintmask 01101100
-48 32 -37 -53 rlineto
22 -32 -38 11 -43 hhcurveto
-126 -106 -108 -159 -76 20 -60 35 -43 hvcurveto
-42 -59 rlineto
hintmask 10101100
48 -32 36 52 rlineto
-21 32 38 -11 42 hhcurveto
endchar
                    </CharString>
                    <CharString index="40">
                        rmoveto
-64 callsubr
-186 89 -139 317 22 vhcurveto
endchar
                    </CharString>
                    <CharString index="41">
                        136 -13 50 -27 -31 vvcurveto
-35 -57 -23 -168 -5 vhcurveto
return
                    </CharString>
                    <CharString index="42">
                        200 -79 111 -139 -147 -93 -120 -219 return
                    </CharString>
                    <CharString index="43">
                        -259 -11 -68 87 167 vvcurveto
142 50 92 271 3 vhcurveto
-5 80 rlineto
-304 -10 -98 -148 -170 vvcurveto
return
                    </CharString>
                    <CharString index="44">
                        rmoveto
hintmask 10100000
-78 callgsubr
endchar
                    </CharString>
                    <CharString index="45">
                        -240 -11 -69 66 129 vvcurveto
104 49 69 253 -1 vhcurveto
-6 77 rlineto
-285 -6 -91 -119 -135 vvcurveto
return
                    </CharString>
                    <CharString index="46">
                        5 rlineto
-54 callgsubr
return
                    </CharString>
                    <CharString index="47">
                        rmoveto
28 66 rlineto
-175 53 -76 39 53 58 88 42 63 vvcurveto
hintmask 10110000
39 -31 40 -84 21 vhcurveto
hintmask 10101000
85 23 32 41 37 vvcurveto
hintmask 11000000
56 -96 49 52 vvcurveto
45 78 40 181 51 vhcurveto
-26 67 rlineto
-230 -73 -81 -69 -69 vvcurveto
hintmask 10101000
1 -75 100 -43 -45 vvcurveto
-30 -36 -23 -125 -11 vhcurveto
-2 -59 rlineto
hintmask 10110000
109 -7 48 -31 -38 vvcurveto
hintmask 10100000
-47 -92 -43 -79 vvcurveto
-74 78 -46 226 -73 vhcurveto
endchar
                    </CharString>
                    <CharString index="48">
                        rmoveto
-80 -51 -47 -61 -58 54 -46 77 80 52 46 62 56 -54 48 -78 hvcurveto
return
                    </CharString>
                    <CharString index="49">
                        -264 -100 callsubr
                    </CharString>
                    <CharString index="50">
                        -9 70 -41 -21 286 59 214 31 callsubr
hintmask 10110110
501 322 rmoveto
hintmask 01101110
33 callsubr
-277 -70 -59 70 -286 vlineto
hintmask 10110110
22 callgsubr
-334 -256 rmoveto
219 128 vlineto
3 59 rlineto
-131 211 hlineto
42 callsubr
42 callgsubr
endchar
                    </CharString>
                    <CharString index="51">
                        69 -38 -21 26 -37 callsubr
return
                    </CharString>
                    <CharString index="52">
                        18 -21 24 44 callsubr
187 63 298 71 return
                    </CharString>
                    <CharString index="53">
                        685 -93 callsubr
return
                    </CharString>
                    <CharString index="54">
                        82.5 return
                    </CharString>
                    <CharString index="55">
                        148 -309 43 107 vvcurveto
51 57 40 217 -15 vhcurveto
-5 77 rlineto
-255 14 -99 -92 -88 return
                    </CharString>
                    <CharString index="56">
                        8 232 rmoveto
49 40 31 48 56 41 -37 -77 vhcurveto
-4 vlineto
-88 -60 -97 20 78 vvcurveto
endchar
                    </CharString>
                    <CharString index="57">
                        64 162 52 146 41 121 rrcurveto
-78 hlineto
-26 -69 -70 -221 -37 -100 rrcurveto
-10 hlineto
return
                    </CharString>
                    <CharString index="58">
                        -1 23 -4 51 -1 10 rrcurveto
-190 hlineto
-6 -58 124 -7 3 -98 1 -115 2 -150 rlinecurve
-130 -62 hlineto
return
                    </CharString>
                    <CharString index="59">
                        -148 1 2 31 46 180 15 51 rlinecurve
-70 5 return
                    </CharString>
                    <CharString index="60">
                        6 72 -320 -2 311 352 rlineto
68 -395 vlineto
-6 -72 308 2 -311 -351 rlineto
-69 vlineto
endchar
                    </CharString>
                    <CharString index="61">
                        rmoveto
428 55 -428 hlineto
return
                    </CharString>
                    <CharString index="62">
                        -79 61 -48 89 77 57 35 37 40 vhcurveto
return
                    </CharString>
                    <CharString index="63">
                        5 55 -57 -1 1 137 -62 -5 2 -132 return
                    </CharString>
                    <CharString index="64">
                        718 -94 callgsubr
return
                    </CharString>
                    <CharString index="65">
                        hintmask 11010000
435 hmoveto
-38 callgsubr
return
                    </CharString>
                    <CharString index="66">
                        99 62 51 58 48 -49 30 -53 26 hvcurveto
return
                    </CharString>
                    <CharString index="67">
                        rmoveto
6 -305 -102 hlineto
32 102 33 103 31 100 rrcurveto
6 -549 rmoveto
244 hlineto
6 71 rlineto
-177 211 146 63 -146 204 173 71 -301 hlineto
-69 -206 -70 -208 -64 -206 rrcurveto
81 hlineto
18 60 19 61 19 61 rrcurveto
121 hlineto
endchar
                    </CharString>
                    <CharString index="68">
                        62 callgsubr
hintmask 10011100
-35 callgsubr
hintmask 01101100
47 callsubr
                    </CharString>
                    <CharString index="69">
                        rmoveto
157 57 75 90 113 vvcurveto
104 -64 56 -90 -84 -71 -56 -82 return
                    </CharString>
                    <CharString index="70">
                        -21 484 -20 23 57 callsubr
return
                    </CharString>
                    <CharString index="71">
                        89 13 -148 268 rlineto
60 43 44 56 82 vvcurveto
127 -96 82 -285 -42 vhcurveto
return
                    </CharString>
                    <CharString index="72">
                        -118 145 -31 98 81 vhcurveto
-13 -69 -52 -46 -125 -44 rrcurveto
return
                    </CharString>
                    <CharString index="73">
                        154.5 -9 callsubr
return
                    </CharString>
                    <CharString index="74">
                        2 -22 4 -31 1 -10 rrcurveto
endchar
                    </CharString>
                    <CharString index="75">
                        -81 -6 rlineto
-329 vlineto
-121 return
                    </CharString>
                    <CharString index="76">
                        -29 callsubr
239 62 callsubr
hintmask 01011100
return
                    </CharString>
                    <CharString index="77">
                        -145 309 -38 -114 vvcurveto
-59 -82 -51 -226 19 vhcurveto
return
                    </CharString>
                    <CharString index="78">
                        -11 callsubr
50 callsubr
return
                    </CharString>
                    <CharString index="79">
                        hintmask 11011000
460 -8 -8 callsubr
hintmask 11101000
21 callgsubr
hintmask 11011000
60 callgsubr
return
                    </CharString>
                    <CharString index="80">
                        rmoveto
-334 -70 334 hlineto
return
                    </CharString>
                    <CharString index="81">
                        rmoveto
hintmask 01011100
33 callsubr
-622 vlineto
hintmask 10101100
22 callgsubr
-84 -13 rmoveto
42 callgsubr
489 vlineto
42 callsubr
endchar
                    </CharString>
                    <CharString index="82">
                        0 62 574.5 -3 callgsubr
return
                    </CharString>
                    <CharString index="83">
                        125 -276 22 81 vvcurveto
40 54 34 201 -18 vhcurveto
return
                    </CharString>
                    <CharString index="84">
                        75 hlineto
17 116 21 190 11 184 rrcurveto
-76 hlineto
return
                    </CharString>
                    <CharString index="85">
                        rmoveto
169 220 5 81 -171 222 -60 -47 170 -217 -172 -210 rlineto
-179 -49 rmoveto
169 220 4 81 -170 222 -60 -47 170 -216 -172 -211 rlineto
endchar
                    </CharString>
                    <CharString index="86">
                        6 callsubr
26 callgsubr
return
                    </CharString>
                    <CharString index="87">
                        18 -64 17 -65 17 -64 rrcurveto
return
                    </CharString>
                    <CharString index="88">
                        rmoveto
60 47 -168 218 170 209 31 callgsubr
409 -222 rmoveto
60 47 -170 217 172 210 31 callgsubr
endchar
                    </CharString>
                    <CharString index="89">
                        -66 callsubr
-75 -197 -46 callsubr
return
                    </CharString>
                    <CharString index="90">
                        136 rlineto
return
                    </CharString>
                    <CharString index="91">
                        -55 callsubr
48 callgsubr
return
                    </CharString>
                    <CharString index="92">
                        -33 -119 -17 -126 1 -77 return
                    </CharString>
                    <CharString index="93">
                        426 425 rmoveto
-95 callsubr
return
                    </CharString>
                    <CharString index="94">
                        26 callsubr
0 callgsubr
return
                    </CharString>
                    <CharString index="95">
                        66 -39 28 -29 -22 vvcurveto
-21 -34 -15 -83 -12 vhcurveto
return
                    </CharString>
                    <CharString index="96">
                        0 148 -127 -21 481 139 0 -20 return
                    </CharString>
                    <CharString index="97">
                        -26 callgsubr
85 callgsubr
return
                    </CharString>
                    <CharString index="98">
                        57.5 return
                    </CharString>
                    <CharString index="99">
                        rmoveto
9 68 rlineto
-164 3 -47 22 85 vvcurveto
257 200 63 -200 143 vlineto
return
                    </CharString>
                    <CharString index="100">
                        -55 callgsubr
7 callgsubr
hintmask 10011110
return
                    </CharString>
                    <CharString index="101">
                        60 290 56 hstemhm
337 76 -52 64 hintmask 11010000
141 return
                    </CharString>
                    <CharString index="102">
                        53 152 46 hstem
121 62 185 62 vstem
275 return
                    </CharString>
                    <CharString index="103">
                        7 62 rlineto
-166 hlineto
-1 114 -2 96 -1 85 rrcurveto
return
                    </CharString>
                    <CharString index="104">
                        -220 50 177 -21 28 -21 151 50 return
                    </CharString>
                    <CharString index="105">
                        -1 -81 rlineto
62 hlineto
-1 81 rlineto
return
                    </CharString>
                    <CharString index="106">
                        hstem
46 85 288 85 vstem
return
                    </CharString>
                    <CharString index="107">
                        50 314 9 callsubr
hintmask 11100100
267 return
                    </CharString>
                    <CharString index="108">
                        0 25 callsubr
475 25 callsubr
return
                    </CharString>
                    <CharString index="109">
                        -7 65 -64 68 161 52 -48.5 49.5 149 69 -65 67 hstemhm
34 76 124 70 135 74 hintmask 0101011110000000
return
                    </CharString>
                    <CharString index="110">
                        1 callsubr
hstem
67 421 vstem
return
                    </CharString>
                    <CharString index="111">
                        7 62 rlineto
-160 636 -226 hlineto
return
                    </CharString>
                    <CharString index="112">
                        -46 43 -30 48 -26 vhcurveto
return
                    </CharString>
                    <CharString index="113">
                        -61 -25 -37 -35 -47 vvcurveto
return
                    </CharString>
                    <CharString index="114">
                        hstemhm
82 81 218 81 return
                    </CharString>
                    <CharString index="115">
                        24 callgsubr
hintmask 11000000
248 return
                    </CharString>
                    <CharString index="116">
                        50 -20 callgsubr
return
                    </CharString>
                    <CharString index="117">
                        -113 2 -160 -214 vvcurveto
return
                    </CharString>
                    <CharString index="118">
                        61.5 return
                    </CharString>
                    <CharString index="119">
                        rmoveto
-79 -56 61 125 124 70 67 90 26 27 -5 -9 28 hvcurveto
-137 1 -99 2 -85 vhcurveto
-24 -30 -38 -18 -41 hhcurveto
return
                    </CharString>
                    <CharString index="120">
                        32 callgsubr
92 55 return
                    </CharString>
                    <CharString index="121">
                        130 112 116 191 191 -105 108 -131 -132 -98 -124 -185 vhcurveto
48 2 rmoveto
161 return
                    </CharString>
                    <CharString index="122">
                        37 callsubr
hstemhm
58 80 278 76 hintmask 01111000
return
                    </CharString>
                    <CharString index="123">
                        54 hstem
-9 callgsubr
vstem
445 return
                    </CharString>
                    <CharString index="124">
                        rlineto
-12 callsubr
6 -64 rlineto
hintmask 10011100
37 callgsubr
endchar
                    </CharString>
                    <CharString index="125">
                        -95 callgsubr
hintmask 11110010
return
                    </CharString>
                    <CharString index="126">
                        60 callsubr
-128 -102 -179 29 callsubr
                    </CharString>
                    <CharString index="127">
                        -8 68 367 63 136 38 callgsubr
177 81 return
                    </CharString>
                    <CharString index="128">
                        34 callsubr
52 callsubr
return
                    </CharString>
                    <CharString index="129">
                        7 callgsubr
hintmask 10011111
return
                    </CharString>
                    <CharString index="130">
                        -157 -21 668 58 callgsubr
return
                    </CharString>
                    <CharString index="131">
                        -15 69 512 69 return
                    </CharString>
                    <CharString index="132">
                        72.5 return
                    </CharString>
                    <CharString index="133">
                        -15 72 563 -20 return
                    </CharString>
                    <CharString index="134">
                        81 hintmask 11011100
291 432 -46 callgsubr
return
                    </CharString>
                    <CharString index="135">
                        rmoveto
41 callgsubr
40 callgsubr
return
                    </CharString>
                    <CharString index="136">
                        -145 78 -87 106 60 49 28 33 35 hvcurveto
endchar
                    </CharString>
                    <CharString index="137">
                        804 -27 callsubr
return
                    </CharString>
                    <CharString index="138">
                        72 85 callsubr
85 82 250 84 return
                    </CharString>
                    <CharString index="139">
                        -152 -21 211 65 329 69 return
                    </CharString>
                    <CharString index="140">
                        240 -114 101 -302 -42 vhcurveto
return
                    </CharString>
                    <CharString index="141">
                        0 66 488 66 return
                    </CharString>
                    <CharString index="142">
                        -12 67 -36 -21 25 -21 430 69 -3 -20 221 38 callgsubr
56 80 241 81 return
                    </CharString>
                    <CharString index="143">
                        76 4 rlineto
-5 111 -2 155 220 vvcurveto
return
                    </CharString>
                    <CharString index="144">
                        0 100 -79 -21 490 -20 return
                    </CharString>
                    <CharString index="145">
                        -55 callsubr
56 212 48 callgsubr
hintmask 00111110
return
                    </CharString>
                    <CharString index="146">
                        78 callsubr
hstemhm
return
                    </CharString>
                    <CharString index="147">
                        hmoveto
5 120 rlineto
-98 hlineto
-5 -120 rlineto
return
                    </CharString>
                    <CharString index="148">
                        -6 73 484 74 hstem
85 85 return
                    </CharString>
                    <CharString index="149">
                        180 22 70 -81 -187 vvcurveto
return
                    </CharString>
                    <CharString index="150">
                        0 hflex1
return
                    </CharString>
                    <CharString index="151">
                        -21 24 -21 return
                    </CharString>
                    <CharString index="152">
                        rmoveto
324 hlineto
7 66 rlineto
-253 742 249 66 -327 hlineto
endchar
                    </CharString>
                    <CharString index="153">
                        25 callgsubr
51 callsubr
return
                    </CharString>
                    <CharString index="154">
                        -3 481 rlineto
5 hlineto
endchar
                    </CharString>
                    <CharString index="155">
                        -14 66 -33 -21 439 66 -12 -20 hstemhm
55 81 279 80 hintmask 10101100
return
                    </CharString>
                    <CharString index="156">
                        -9 70 -41 -21 559 31 callsubr
hintmask 10101100
return
                    </CharString>
                    <CharString index="157">
                        hstemhm
80 51 callgsubr
return
                    </CharString>
                    <CharString index="158">
                        hstem
255 81 vstem
return
                    </CharString>
                    <CharString index="159">
                        hstem
233 83 vstem
return
                    </CharString>
                    <CharString index="160">
                        25 callgsubr
79 44 callgsubr
return
                    </CharString>
                    <CharString index="161">
                        59 hstemhm
148 78 -75 81 11 77 -71 73 hintmask 10100000
455 return
                    </CharString>
                    <CharString index="162">
                        0 71 111 62 38 63 204 71 hstem
262 73 vstem
return
                    </CharString>
                    <CharString index="163">
                        15 -21 27 -21 26 -21 274 68 273 -20 hstemhm
91 83 return
                    </CharString>
                    <CharString index="164">
                        -20 23 -20 return
                    </CharString>
                    <CharString index="165">
                        -57 95 -49 -51 vvcurveto
-45 -78 -41 -180 -50 vhcurveto
endchar
                    </CharString>
                    <CharString index="166">
                        vvcurveto
-49 49 -34 136 -11 vhcurveto
return
                    </CharString>
                    <CharString index="167">
                        2 -14 -15 1 -15 hhcurveto
-149 return
                    </CharString>
                    <CharString index="168">
                        -20 84 -20 28 -20 hstemhm
return
                    </CharString>
                    <CharString index="169">
                        76.5 return
                    </CharString>
                    <CharString index="170">
                        10 hlineto
0 6 -1 3 -4 -3 -2 -2 43 callsubr
return
                    </CharString>
                    <CharString index="171">
                        86 12 -188 249 62 73 59 79 56 79 rlinecurve
return
                    </CharString>
                    <CharString index="172">
                        49.5 142 51.5 return
                    </CharString>
                    <CharString index="173">
                        75 callgsubr
-699 81 218 vlineto
73 2 rlineto
return
                    </CharString>
                    <CharString index="174">
                        rmoveto
230 73 80 70 68 76 -101 43 45 vvcurveto
return
                    </CharString>
                    <CharString index="175">
                        hintmask 100000000000000000000000000000001000000000000000
return
                    </CharString>
                    <CharString index="176">
                        80 callsubr
29 -21 152 return
                    </CharString>
                    <CharString index="177">
                        rlineto
188 return
                    </CharString>
                    <CharString index="178">
                        66 742 66 hstem
137 78 vstem
137 return
                    </CharString>
                    <CharString index="179">
                        0 71 348 71 return
                    </CharString>
                    <CharString index="180">
                        -9 68 489 80 return
                    </CharString>
                    <CharString index="181">
                        rlinecurve
-116 return
                    </CharString>
                    <CharString index="182">
                        74 5 rlineto
return
                    </CharString>
                    <CharString index="183">
                        29 37 24 124 11 vhcurveto
3 58 rlineto
return
                    </CharString>
                    <CharString index="184">
                        hstemhm
230 72 -71 77 12 81 -76 78 return
                    </CharString>
                    <CharString index="185">
                        55 93 -36 callgsubr
return
                    </CharString>
                    <CharString index="186">
                        33 callgsubr
vstem
return
                    </CharString>
                    <CharString index="187">
                        -151 -21 return
                    </CharString>
                    <CharString index="188">
                        118.5 hintmask 11010000
338 return
                    </CharString>
                    <CharString index="189">
                        -219 53 152 46 245 55 return
                    </CharString>
                    <CharString index="190">
                        39 hhcurveto
77 57 -65 -122 -123 return
                    </CharString>
                    <CharString index="191">
                        69 153 69 hstem
78 394 vstem
return
                    </CharString>
                    <CharString index="192">
                        -9 -20 hstemhm
return
                    </CharString>
                    <CharString index="193">
                        69 callgsubr
62 return
                    </CharString>
                    <CharString index="194">
                        hstem
126 303 vstem
369 return
                    </CharString>
                    <CharString index="195">
                        24 37 39 16 46 hhcurveto
endchar
                    </CharString>
                    <CharString index="196">
                        83.5 return
                    </CharString>
                    <CharString index="197">
                        428 -6 rmoveto
return
                    </CharString>
                    <CharString index="198">
                        hstem
66 80 return
                    </CharString>
                <CharString name=".notdef">
                    -200 50 900 50 hstem
5 54 432 54 vstem
5 -200 rmoveto
540 1000 -540 hlineto
77 -50 rmoveto
386 hlineto
-193 -390 rlineto
216 316 rmoveto
-752 vlineto
-186 376 rlineto
-246 -376 rmoveto
752 vlineto
186 -376 rlineto
30 -60 rmoveto
193 -390 rlineto
-386 hlineto
endchar
                </CharString>
                <CharString name="A">
                    -16 callsubr
hintmask 10011100
430 -3 -97 callsubr
                </CharString>
                <CharString name="AE">
                    55 callsubr
256 549 -40 callsubr
                </CharString>
                <CharString name="AEacute">
                    55 callsubr
214 -88 callsubr
42 -175 -40 callsubr
                </CharString>
                <CharString name="Aacute">
                    -16 callsubr
hintmask 00111100
169 -88 callsubr
hintmask 10011100
261 -727 -97 callsubr
                </CharString>
                <CharString name="Abreve">
                    -55 callsubr
73 66 48 callgsubr
hintmask 00111110
273 -71 callgsubr
hintmask 10011110
157 -698 -96 callgsubr
                </CharString>
                <CharString name="Acircumflex">
                    -16 callsubr
hintmask 00111100
401 -52 callgsubr
hintmask 10011100
162 -807 -97 callsubr
                </CharString>
                <CharString name="Adieresis">
                    -55 callsubr
77 44 callgsubr
124.5 -76 callgsubr
hintmask 00111111
426 699 -95 callgsubr
hintmask 10011111
306 -702 -48 callgsubr
                </CharString>
                <CharString name="Agrave">
                    -16 callsubr
hintmask 00111100
374 -43 callsubr
hintmask 10011100
80 -685 -97 callsubr
                </CharString>
                <CharString name="Amacron">
                    -55 callsubr
112 70 48 callgsubr
hintmask 00111110
441 30 callsubr
hintmask 10011110
-11 -737 -96 callgsubr
                </CharString>
                <CharString name="Aogonek">
                    -212 65 168 44 callsubr
23 -21 185 63 298 71 hstemhm
307 76 hintmask 10011110
492 -212 rmoveto
8 65 rlineto
-85 8 80 callgsubr
hintmask 10101110
24 29 30 102 48 vhcurveto
-43 callgsubr
rrcurveto
-116 hlineto
hintmask 11001110
-92 callgsubr
hintmask 10011110
17 -62 17 -62 16 -61 rrcurveto
-87 -48 -34 -38 -38 vvcurveto
-49 50 -34 135 -10 vhcurveto
-222 763 -90 callgsubr
                </CharString>
                <CharString name="Aring">
                    38 callsubr
272 890 -62 callgsubr
                </CharString>
                <CharString name="Aringacute">
                    38 callsubr
169 966 -107 callgsubr
103 -76 -62 callgsubr
                </CharString>
                <CharString name="Atilde">
                    -55 callsubr
75 92 callgsubr
48 callgsubr
hintmask 00111111
350 697 -89 callgsubr
hintmask 10011111
80 -700 -48 callgsubr
                </CharString>
                <CharString name="B">
                    -8 66 -37 -21 281 61 219 67 -8 -20 hstemhm
95 82 218 80 -62 82 hintmask 10110101
495 177 rmoveto
84 -53 46 -86 17 vhcurveto
hintmask 01101110
69 24 50 49 80 vvcurveto
135 -148 35 -232 -27 vhcurveto
-620 vlineto
hintmask 10110101
227 -30 174 48 -1 159 rrcurveto
-318 380 rmoveto
hintmask 10110110
133 15 85 -27 -88 vvcurveto
-83 -57 -37 -161 5 vhcurveto
hintmask 10110101
-278 vmoveto
217 vlineto
157 6 79 -21 -94 vvcurveto
-101 -90 -27 -146 20 vhcurveto
endchar
                </CharString>
                <CharString name="C">
                    -3 71 480 80 hstem
66 86 vstem
479 68 -67 callsubr
                </CharString>
                <CharString name="Cacute">
                    70 callgsubr
hstemhm
66 86 hintmask 01110000
207 -88 callsubr
hintmask 10110000
272 -656 -67 callsubr
                </CharString>
                <CharString name="Ccaron">
                    70 callgsubr
hstemhm
66 86 hintmask 01110000
320 -54 callsubr
hintmask 10110000
163 -617 -67 callsubr
                </CharString>
                <CharString name="Ccedilla">
                    -3 71 -61 -21 41 -21 542 80 hstemhm
66 86 167 72 hintmask 10011100
391 -112 rmoveto
hintmask 00111100
36 -31 40 -72 42 vhcurveto
hintmask 10011100
50 -11 61 -3 73 5 7 71 rcurveline
-64 callsubr
hintmask 01011100
-129 43 -107 132 -45 vhcurveto
-16 -33 17 callsubr
                </CharString>
                <CharString name="Cdotaccent">
                    70 callgsubr
71 44 callgsubr
66 86 120.5 84 hintmask 01111100
354 -17 callgsubr
hintmask 10111100
208 -631 -67 callsubr
                </CharString>
                <CharString name="D">
                    49 callsubr
501 322 -26 callsubr
                </CharString>
                <CharString name="Dcaron">
                    49 callsubr
274 691 -93 callsubr
231 -369 -26 callsubr
                </CharString>
                <CharString name="Dcroat">
                    -57 callsubr
                </CharString>
                <CharString name="E">
                    -12 callgsubr
486 71 -78 callsubr
                </CharString>
                <CharString name="Eacute">
                    -12 callgsubr
189 -88 callsubr
297 -653 -78 callsubr
                </CharString>
                <CharString name="Ebreve">
                    23 callgsubr
75 66 85 callgsubr
vstem
293 -71 callgsubr
193 -624 -78 callsubr
                </CharString>
                <CharString name="Ecaron">
                    -12 callgsubr
302 -54 callsubr
188 -614 -78 callsubr
                </CharString>
                <CharString name="Ecircumflex">
                    -12 callgsubr
421 -52 callgsubr
198 -733 -78 callsubr
                </CharString>
                <CharString name="Edieresis">
                    23 callgsubr
79 44 callgsubr
105 83 -43.5 -76 callgsubr
hintmask 11111010
446 699 rmoveto
-97 callgsubr
hintmask 11110110
-80 callsubr
342 -628 rmoveto
hintmask 11111010
-84 callgsubr
                </CharString>
                <CharString name="Edotaccent">
                    23 callgsubr
79 136 85 callgsubr
66.5 84 vstem
336 -17 callgsubr
233 -628 -78 callsubr
                </CharString>
                <CharString name="Egrave">
                    -12 callgsubr
395 -43 callsubr
115 -611 -78 callsubr
                </CharString>
                <CharString name="Emacron">
                    23 callgsubr
114 70 85 callgsubr
vstem
461 30 callsubr
25 -663 -78 callsubr
                </CharString>
                <CharString name="Eogonek">
                    -216 66 150 -10 callsubr
84 75 vstem
464 -150 rmoveto
67 callgsubr
8 71 rlineto
-77 callgsubr
284 hlineto
-85 -47 -32 -38 -37 59 callsubr
endchar
                </CharString>
                <CharString name="Eth">
                    -57 callsubr
                </CharString>
                <CharString name="Euro">
                    0 -21 215 61 -53 55 96 56 233 -20 hstemhm
123 76 hintmask 10111100
485 47 rmoveto
-170 25 -74 48 -27 82 rrcurveto
211 hlineto
3 55 rlineto
-226 hlineto
-2 17 -1 18 20 vvcurveto
14 0 14 1 13 vhcurveto
229 hlineto
3 56 rlineto
-223 hlineto
22 85 68 43 179 27 -13 78 rcurveline
-213 -40 -88 -78 -29 -110 rrcurveto
-74 -61 64 hlineto
hintmask 11011100
-1 -15 -1 -15 -15 vvcurveto
-18 1 -18 2 -17 vhcurveto
-64 -61 75 hlineto
32 -117 96 -74 209 -24 rrcurveto
endchar
                </CharString>
                <CharString name="F">
                    21 -21 270 65 214 71 hstem
111 84 vstem
451 270 rmoveto
65 -256 214 297 71 -381 -620 84 270 vlineto
endchar
                </CharString>
                <CharString name="G">
                    73 callsubr
hstem
54 85 259 78 vstem
477 7 -83 callsubr
endchar
                </CharString>
                <CharString name="Gbreve">
                    73 callsubr
67 66 hstem
54 85 259 78 vstem
291 -71 callgsubr
186 -688 -83 callsubr
endchar
                </CharString>
                <CharString name="Gcommaaccent">
                    73 callsubr
hstem
54 85 118 82 59 78 vstem
477 7 -83 callsubr
-244 -280 -100 callsubr
                </CharString>
                <CharString name="Gdotaccent">
                    73 callsubr
71 81 callgsubr
54 85 112.5 84 62.5 78 vstem
333 -17 callgsubr
227 -692 -83 callsubr
endchar
                </CharString>
                <CharString name="H">
                    21 -21 282 64 274 -20 hstem
79 85 222 85 vstem
386 hmoveto
85 620 -85 -274 -222 274 -85 -620 85 282 222 hlineto
endchar
                </CharString>
                <CharString name="Hbar">
                    21 -21 268 64 112 58 -56 54 -54 174 hstemhm
79 85 222 85 hintmask 11010110
386 332 rmoveto
-222 114 222 hlineto
-446 vmoveto
85 hlineto
hintmask 11100110
444 70 58 -70 vlineto
hintmask 11001110
118 -85 vlineto
hintmask 11010110
-120 -222 vlineto
hintmask 11001110
120 -85 vlineto
hintmask 11100110
-118 -70 -58 70 -444 85 268 222 vlineto
endchar
                </CharString>
                <CharString name="I">
                    21 callsubr
316 554 -81 callsubr
                </CharString>
                <CharString name="Iacute">
                    21 callsubr
172 -88 callsubr
144 -170 -81 callsubr
                </CharString>
                <CharString name="Ibreve">
                    34 callsubr
75 66 52 callsubr
276 -71 callgsubr
40 -141 -81 callsubr
                </CharString>
                <CharString name="Icircumflex">
                    21 callsubr
404 -52 callgsubr
45 -250 -81 callsubr
                </CharString>
                <CharString name="Idieresis">
                    34 callsubr
79 44 callgsubr
127.5 -53 callsubr
23 83 31.5 -53 callsubr
hintmask 11101100
429 699 rmoveto
-97 callgsubr
hintmask 11111100
-80 callsubr
hintmask 11101100
189 -145 -81 callsubr
                </CharString>
                <CharString name="Idotaccent">
                    34 callsubr
79 44 callgsubr
233 83 -78.5 84 hintmask 11101000
319 -17 callgsubr
hintmask 11110000
80 -145 -81 callsubr
                </CharString>
                <CharString name="Igrave">
                    21 callsubr
378 -43 callsubr
-38 -128 -81 callsubr
                </CharString>
                <CharString name="Imacron">
                    34 callsubr
114 70 52 callsubr
444 30 callsubr
-128 -180 -81 callsubr
                </CharString>
                <CharString name="Iogonek">
                    -214 65 149 66 488 66 hstemhm
160 76 -3 83 hintmask 11101000
353 -149 rmoveto
hintmask 11110000
-85 9 -32 16 26 vvcurveto
24 18 27 58 47 vhcurveto
156 hlineto
6 66 rlineto
hintmask 11101000
-158 488 -41 callgsubr
hlineto
hintmask 11110000
-153 -66 162 hlineto
-58 -45 -24 -36 -35 vvcurveto
-52 89 callgsubr
                </CharString>
                <CharString name="J">
                    -10 74 489 67 hstem
340 83 vstem
126 620 rmoveto
-67 214 -352 vlineto
-119 -32 -27 -220 9 vhcurveto
-74 vlineto
254 -7 81 67 151 vvcurveto
419 vlineto
endchar
                </CharString>
                <CharString name="K">
                    56 callsubr
hintmask 10011100
90 callsubr
hintmask 00111100
29 callgsubr
hintmask 01011100
-620 83 279 64 vlineto
endchar
                </CharString>
                <CharString name="Kcommaaccent">
                    56 callsubr
66 82 hintmask 10011110
90 callsubr
hintmask 00111110
29 callgsubr
hintmask 01011110
-620 83 279 64 vlineto
-22 -549 -100 callsubr
                </CharString>
                <CharString name="L">
                    0 71 549 -20 hstem
113 84 16 callgsubr
endchar
                </CharString>
                <CharString name="Lacute">
                    79 callsubr
197 -88 callsubr
293 -724 59 callgsubr
                </CharString>
                <CharString name="Lcaron">
                    0 71 549 -20 101 53 callgsubr
198 78 vstem
368 463 -42 callgsubr
122 -463 59 callgsubr
                </CharString>
                <CharString name="Lcommaaccent">
                    33 callgsubr
71 82 16 callgsubr
131 -58 callsubr
                </CharString>
                <CharString name="Ldot">
                    0 71 195 108 246 53 callgsubr
187 92 16 callgsubr
360 266 rmoveto
6 108 rlineto
-92 hlineto
-6 -108 rlineto
endchar
                </CharString>
                <CharString name="Lslash">
                    79 callsubr
490 hmoveto
8 71 rlineto
-301 266 hlineto
151 78 -14 57 -137 -71 rlineto
219 -84 -262 vlineto
-82 -42 14 -57 68 35 rlineto
-294 vlineto
endchar
                </CharString>
                <CharString name="M">
                    21 -21 108 100 273 139 hstem
66 74 266 77 vstem
390 620 rmoveto
0 -98 -360 -14 -52 vhcurveto
-4 hlineto
-14 52 -100 360 0 vvcurveto
-94 -620 76 hlineto
-4 481 rlineto
4 hlineto
104 -373 rlineto
56 hlineto
102 373 rlineto
4 hlineto
-4 -481 rlineto
79 620 hlineto
endchar
                </CharString>
                <CharString name="N">
                    -31 callsubr
392 hmoveto
-39 callsubr
                </CharString>
                <CharString name="NUL">
                    -107 endchar
                </CharString>
                <CharString name="Nacute">
                    -31 callsubr
169 -88 callsubr
223 -724 rmoveto
-39 callsubr
                </CharString>
                <CharString name="Ncaron">
                    -31 callsubr
282 -54 callsubr
114 -685 rmoveto
-39 callsubr
                </CharString>
                <CharString name="Ncommaaccent">
                    -29 callsubr
89 callsubr
82 73.5 62 callsubr
hintmask 01011110
392 hmoveto
62 callgsubr
hintmask 10011110
-35 callgsubr
hintmask 01101110
-3 481 rlineto
5 hlineto
56 -745 -100 callsubr
                </CharString>
                <CharString name="Ntilde">
                    -11 callsubr
97 92 callgsubr
50 callsubr
239 62 callsubr
hintmask 01011111
351 697 -89 callgsubr
41 -697 rmoveto
62 callgsubr
hintmask 10011111
-35 callgsubr
hintmask 01101111
47 callsubr
                </CharString>
                <CharString name="O">
                    -10 callgsubr
264 -15 -106 callsubr
                </CharString>
                <CharString name="OE">
                    23 callgsubr
hstem
37 83 150 72 vstem
120 312 rmoveto
166 48 69 102 1 vhcurveto
-477 vlineto
-105 -45 70 171 hvcurveto
390 -241 rmoveto
-168 211 137 63 -137 204 164 71 -212 hlineto
-173 -84 -116 -206 -206 81 -92 174 hvcurveto
212 hlineto
endchar
                </CharString>
                <CharString name="Oacute">
                    -10 callgsubr
173 731 -107 callgsubr
91 -746 -106 callsubr
                </CharString>
                <CharString name="Obreve">
                    24 callsubr
67 66 -1 callsubr
277 702 -104 callsubr
-13 -717 -106 callsubr
                </CharString>
                <CharString name="Ocircumflex">
                    -10 callgsubr
405 697 -101 callsubr
-8 -826 -106 callsubr
                </CharString>
                <CharString name="Odieresis">
                    24 callsubr
71 44 callgsubr
46 85 -2.5 -76 callgsubr
-12 85 hintmask 11101100
430 706 18 callsubr
136 -721 -106 callsubr
                </CharString>
                <CharString name="Ograve">
                    -10 callgsubr
379 725 -94 callgsubr
-91 -704 -106 callsubr
                </CharString>
                <CharString name="Ohungarumlaut">
                    -10 callgsubr
130 723 -82 callgsubr
-74 -736 -106 callsubr
                </CharString>
                <CharString name="Omacron">
                    24 callsubr
106 70 -1 callsubr
445 811 -27 callsubr
-181 -756 -106 callsubr
                </CharString>
                <CharString name="Omega">
                    0 66 493 75 hstem
71 77 253 80 vstem
229 5 rmoveto
-55 146 -26 121 92 vvcurveto
123 45 72 82 82 44 -72 -125 -92 -24 -121 -55 -144 vhcurveto
2 -5 rlineto
181 66 -99 hlineto
51 118 24 105 89 vvcurveto
153 -71 103 -131 -133 -75 -104 -154 -88 23 -105 50 -117 vhcurveto
-98 -66 181 hlineto
endchar
                </CharString>
                <CharString name="Oslash">
                    49 callgsubr
130 314 -69 callgsubr
                </CharString>
                <CharString name="Oslashacute">
                    49 callgsubr
170 732 -107 callgsubr
-40 -418 -69 callgsubr
                </CharString>
                <CharString name="Otilde">
                    24 callsubr
69 92 callgsubr
-1 callsubr
355 704 -89 callgsubr
-91 -719 -106 callsubr
                </CharString>
                <CharString name="P">
                    21 -21 200 74 284 71 -10 -20 hstemhm
98 83 238 82 hintmask 11101100
181 hmoveto
200 vlineto
192 14 128 68 148 vvcurveto
hintmask 11011100
152 -135 77 -268 -40 vhcurveto
-619 vlineto
hintmask 11101100
321 414 rmoveto
-112 -85 -39 -153 11 vhcurveto
280 vlineto
161 21 77 -55 -106 vvcurveto
endchar
                </CharString>
                <CharString name="Q">
                    -9 63 -46 -21 25 -21 575 69 hstemhm
46 85 288 85 hintmask 00111100
447 -135 rmoveto
24 69 -152 56 rlineto
1 vlineto
115 28 71 116 -1 189 rrcurveto
-65 callsubr
vhcurveto
hintmask 01011100
-185 69 -110 120 -14 vhcurveto
-14 -42 rlineto
51 621 rmoveto
97 50 -90 -170 hvcurveto
hintmask 10011100
-166 -48 -86 -93 -98 -49 90 170 vhcurveto
hintmask 01011100
166 47 86 94 vhcurveto
endchar
                </CharString>
                <CharString name="R">
                    -6 callgsubr
hintmask 10011011
428 -10 -69 callsubr
                </CharString>
                <CharString name="R_p">
                    69 callsubr
67 -43 -21 27 44 callsubr
27 -21 224.5 69 callgsubr
65 -10 -20 90 67 85 callsubr
38 67 87 67 47 66 91 65 hintmask 0100100101011111
210 -3 rmoveto
hintmask 0100001101011111
67 9 -71 266 rlineto
33 40 20 60 81 vvcurveto
126 -54 76 -167 -36 vhcurveto
hintmask 0100010101101111
-619 67 229 vlineto
46 3 rlineto
-46 329 rmoveto
62 13 25 -43 -94 vvcurveto
-58 -12 -54 -20 -36 vhcurveto
-55 -2 rlineto
hintmask 0110000110011111
300 -232 rmoveto
-12 -11 2 7 -10 hvcurveto
160 -1 105 -1 84 vhcurveto
14 14 15 9 15 hhcurveto
34 15 -60 -131 -134 -15 -56 -43 hvcurveto
-33 -219 rmoveto
hintmask 0101000101011111
155 vlineto
hintmask 0110000110011111
-2 8 8 -1 8 hhcurveto
84 48 86 197 143 -26 87 -60 -31 -27 -21 -23 -18 hvcurveto
hintmask 1010000101011111
-2 34 -62 -5 rlineto
3 -102 1 -152 -234 vvcurveto
-170 vlineto
endchar
                </CharString>
                <CharString name="Racute">
                    -6 callgsubr
hintmask 00111011
159 732 -107 callgsubr
hintmask 10011011
269 -742 -69 callsubr
                </CharString>
                <CharString name="Rcaron">
                    -6 callgsubr
hintmask 00111011
272 693 -93 callsubr
hintmask 10011011
160 -703 -69 callsubr
                </CharString>
                <CharString name="Rcommaaccent">
                    -21 callgsubr
89 82 45 82 hintmask 1001101110000000
428 -10 rmoveto
hintmask 0011011110000000
-36 callsubr
hintmask 0101101110000000
-56 callgsubr
65 -561 -100 callsubr
                </CharString>
                <CharString name="S">
                    66 callgsubr
86 71 -76 callsubr
endchar
                </CharString>
                <CharString name="Sacute">
                    66 callgsubr
188 728 -107 callgsubr
-102 -657 -76 callsubr
endchar
                </CharString>
                <CharString name="Scaron">
                    66 callgsubr
301 689 -93 callsubr
-211 -618 -76 callsubr
endchar
                </CharString>
                <CharString name="Scedilla">
                    -6 73 -46 -21 551 74 hstemhm
85 85 118 72 34 85 hintmask 10111100
177 -225 rmoveto
37 callgsubr
hintmask 01111100
37 -32 41 -76 43 vhcurveto
163 23 64 77 74 -52 callsubr
vvcurveto
hintmask 10111100
-30 callsubr
-1 -77 43 -2 39 0 36 2 rlinecurve
-9 -17 rlineto
-12 callsubr
endchar
                </CharString>
                <CharString name="Scommaaccent">
                    41 callsubr
68 82 74 85 vstem
86 71 -76 callsubr
128 -346 -100 callsubr
                </CharString>
                <CharString name="T">
                    78 callgsubr
318 549 13 callgsubr
endchar
                </CharString>
                <CharString name="Tcaron">
                    78 callgsubr
280 -54 callsubr
42 -136 13 callgsubr
endchar
                </CharString>
                <CharString name="Tcommaaccent">
                    21 -21 549 71 hstemhm
234 84 -80 82 hintmask 11100000
318 549 13 callgsubr
-104 -264 rmoveto
hintmask 11010000
-57 callgsubr
hintmask 11100000
-77 callsubr
                </CharString>
                <CharString name="Thorn">
                    0 177 -156 -21 104 73 277 68 -68 166 hstemhm
99 83 240 82 hintmask 01110110
182 hmoveto
104 vlineto
192 13 130 68 145 vvcurveto
135 -112 73 -210 -16 vhcurveto
hintmask 01101110
98 -83 -620 vlineto
hintmask 10010110
323 314 rmoveto
-108 -86 -38 -154 9 vhcurveto
273 vlineto
158 19 82 -53 -102 vvcurveto
endchar
                </CharString>
                <CharString name="U">
                    -13 callsubr
270 -15 -101 callgsubr
                </CharString>
                <CharString name="Uacute">
                    -13 callsubr
170 -88 callsubr
100 -739 -101 callgsubr
                </CharString>
                <CharString name="Ubreve">
                    26 callsubr
95 66 0 callgsubr
274 -71 callgsubr
-4 -710 -101 callgsubr
                </CharString>
                <CharString name="Ucircumflex">
                    -13 callsubr
402 -52 callgsubr
1 -819 -101 callgsubr
                </CharString>
                <CharString name="Udieresis">
                    26 callsubr
99 44 callgsubr
75 84 -33.5 -76 callgsubr
-37 83 hintmask 11101100
427 699 18 callsubr
145 -714 -101 callgsubr
                </CharString>
                <CharString name="Ugrave">
                    -13 callsubr
376 -43 callsubr
-82 -697 -101 callgsubr
                </CharString>
                <CharString name="Uhungarumlaut">
                    -13 callsubr
126 716 -82 callgsubr
-64 -729 -101 callgsubr
                </CharString>
                <CharString name="Umacron">
                    26 callsubr
134 70 0 callgsubr
442 30 callsubr
-172 -749 -101 callgsubr
                </CharString>
                <CharString name="Uogonek">
                    -216 66 134 73 563 -20 hstemhm
75 84 22 75 135 83 vstemhm
366 -216 rmoveto
7 66 rlineto
-85 8 -32 16 26 vvcurveto
27 32 26 86 56 vhcurveto
71 46 29 55 94 vvcurveto
-44 callgsubr
vhcurveto
hintmask 11110100
-74 -45 47 102 hvcurveto
414 -84 -420 vlineto
-134 68 -76 122 -6 vhcurveto
hintmask 11111100
-63 -39 -21 -32 -35 59 callsubr
endchar
                </CharString>
                <CharString name="Uring">
                    26 callsubr
78 212 0 callgsubr
274 890 -59 callsubr
-4 -905 -101 callgsubr
                </CharString>
                <CharString name="V">
                    -1 75 546 57 callsubr
hstemhm
38 474 hintmask 10110000
335 -1 rmoveto
hintmask 11010000
64 208 58 206 55 207 rrcurveto
-83 hlineto
-46 -182 -49 -182 -53 -182 rrcurveto
-9 hlineto
hintmask 10110000
-53 182 -50 185 -46 182 -85 -6 rcurveline
55 -207 59 -203 64 -208 rrcurveto
endchar
                </CharString>
                <CharString name="W">
                    9 callgsubr
364 hmoveto
-103 callsubr
                </CharString>
                <CharString name="Wacute">
                    9 callgsubr
174 -88 callsubr
190 -724 rmoveto
-103 callsubr
                </CharString>
                <CharString name="Wcircumflex">
                    9 callgsubr
406 -52 callgsubr
91 -804 rmoveto
-103 callsubr
                </CharString>
                <CharString name="Wdieresis">
                    0 106 514 -20 99 44 callgsubr
51 82 -3.5 -76 callgsubr
-10 78 hintmask 11101100
431 699 -95 callgsubr
235 -699 rmoveto
hintmask 11110010
-103 callsubr
                </CharString>
                <CharString name="Wgrave">
                    9 callgsubr
379 -43 callsubr
9 -682 rmoveto
-103 callsubr
                </CharString>
                <CharString name="X">
                    18 -21 24 44 callsubr
617 57 callsubr
hstemhm
40 473 hintmask 10001100
421 -3 rmoveto
hintmask 00110100
91 6 -183 307 184 310 rlineto
-90 hlineto
-143 -253 rlineto
hintmask 01001100
-149 256 -91 -6 184 -307 -184 -310 rlineto
89 hlineto
143 253 rlineto
endchar
                </CharString>
                <CharString name="Y">
                    1 callgsubr
318 hmoveto
-60 callgsubr
                </CharString>
                <CharString name="Yacute">
                    1 callgsubr
173 726 -107 callgsubr
145 -726 rmoveto
-60 callgsubr
                </CharString>
                <CharString name="Ycircumflex">
                    1 callgsubr
405 692 -101 callsubr
46 -806 rmoveto
-60 callgsubr
                </CharString>
                <CharString name="Ydieresis">
                    21 -21 620 58 callgsubr
99 44 callgsubr
128.5 -53 callsubr
23 84 30.5 -53 callsubr
hintmask 10110110
430 701 rmoveto
-97 callgsubr
hintmask 10111110
-80 callsubr
hintmask 11010110
190 -701 rmoveto
206 vlineto
-11 callgsubr
hintmask 10110110
-31 callgsubr
                </CharString>
                <CharString name="Ygrave">
                    1 callgsubr
378 720 -94 callgsubr
-36 -684 rmoveto
-60 callgsubr
                </CharString>
                <CharString name="Z">
                    3 callsubr
481 hmoveto
-47 callgsubr
                </CharString>
                <CharString name="Zacute">
                    3 callsubr
182 -88 callsubr
299 -724 rmoveto
-47 callgsubr
                </CharString>
                <CharString name="Zcaron">
                    3 callsubr
295 -54 callsubr
190 -685 rmoveto
-47 callgsubr
                </CharString>
                <CharString name="Zdotaccent">
                    1 callsubr
79 81 callgsubr
247.5 84 vstem
329 -17 callgsubr
235 -699 rmoveto
-47 callgsubr
                </CharString>
                <CharString name="a">
                    -7 callsubr
248 52 -86 callsubr
                </CharString>
                <CharString name="aacute">
                    -7 callsubr
168 598 -107 callgsubr
80 -546 -86 callsubr
                </CharString>
                <CharString name="abreve">
                    -55 callgsubr
70 66 22 callsubr
273 569 -104 callsubr
-25 -517 -104 callgsubr
                </CharString>
                <CharString name="acircumflex">
                    -7 callsubr
401 564 -101 callsubr
-20 -626 -86 callsubr
                </CharString>
                <CharString name="acute">
                    558 214 hstem
162 258 vstem
162 -61 callgsubr
endchar
                </CharString>
                <CharString name="adieresis">
                    -55 callgsubr
74 136 74 callgsubr
-23.5 -76 callgsubr
-41 79 hintmask 1001110110000000
425 573 -95 callgsubr
125 -521 rmoveto
hintmask 1001111001000000
-75 callsubr
hintmask 1001110110000000
-30 -38 -52 -23 -49 hhcurveto
hintmask 0101110101000000
43 callgsubr
hintmask 0011111001000000
-102 callgsubr
hintmask 1001111001000000
-45 callsubr
hintmask 0101110101000000
-33 callsubr
                </CharString>
                <CharString name="ae">
                    2 callsubr
375 429 -74 callsubr
                </CharString>
                <CharString name="aeacute">
                    2 callsubr
170 -61 callgsubr
205 -165 -74 callsubr
                </CharString>
                <CharString name="agrave">
                    -55 callgsubr
206 -20 22 callsubr
374 592 -94 callgsubr
-102 -504 -104 callgsubr
                </CharString>
                <CharString name="amacron">
                    -55 callgsubr
109 70 22 callsubr
440 678 -27 callsubr
-192 -556 -104 callgsubr
                </CharString>
                <CharString name="ampersand">
                    -12 67 501 76 hstemhm
38 77 -4 80 hintmask 11100000
517 38 rmoveto
-41 50 -37 43 -33 38 33 59 32 79 22 89 -70 9 rcurveline
-14 -68 -21 -66 -23 -54 rrcurveto
hintmask 11010000
-119 136 -55 59 52 vvcurveto
54 42 46 163 -8 vhcurveto
-6 76 rlineto
-213 4 -66 -91 -86 vvcurveto
-43 20 -40 40 -52 vhcurveto
hintmask 11100000
-88 -56 -45 -63 -75 vvcurveto
-80 49 -62 95 64 64 34 77 51 vhcurveto
28 -34 31 -37 32 -41 rrcurveto
-253 68 rmoveto
-55 -29 39 53 47 28 49 59 42 hvcurveto
32 -38 41 -46 48 -57 rrcurveto
-61 -39 -43 -28 -42 hhcurveto
endchar
                </CharString>
                <CharString name="aogonek">
                    -214 65 137 64 -43 -21 35 -21 223 54 150 70 74 callgsubr
117 76 45 79 hintmask 1100111110000000
450 -214 rmoveto
7 65 rlineto
-85 9 80 callgsubr
hintmask 1001111110000000
23 29 31 103 48 vhcurveto
-103 callgsubr
hintmask 1100111110000000
-79 59 -48 84 76 62 46 50 41 vhcurveto
hintmask 1010111110000000
2 -21 4 -34 2 -20 rrcurveto
-96 -50 -37 -40 -40 vvcurveto
hintmask 1100111110000000
-48 50 -35 136 -10 vhcurveto
-208 266 rmoveto
-57 -38 29 53 67 59 39 179 -19 hvcurveto
-40 0 -25 1 -28 vhcurveto
-43 -38 -55 -33 -51 hhcurveto
endchar
                </CharString>
                <CharString name="approxequal">
                    100 68 39 69 37 68 39 69 hstem
54 438 vstem
362 313 rmoveto
57 35 50 100 38 hvcurveto
-51 21 rlineto
-59 -25 55 callgsubr
50 -20 rlineto
61 27 23 45 30 50 49 -107 79 hhcurveto
-213 vmoveto
57 35 50 100 38 hvcurveto
-50 21 rlineto
-59 -26 55 callgsubr
51 -20 rlineto
61 26 24 45 30 49 49 -107 79 hhcurveto
endchar
                </CharString>
                <CharString name="aring">
                    -55 callgsubr
53 212 22 callsubr
272 764 -66 callgsubr
                </CharString>
                <CharString name="aringacute">
                    -55 callgsubr
53 212 22 callsubr
168 842 -107 callgsubr
104 -78 -66 callgsubr
                </CharString>
                <CharString name="asciicircum">
                    496 -20 hstem
55 444 vstem
438 157 rmoveto
61 43 -219 296 -16 -3 -209 -294 56 -42 160 232 rlineto
endchar
                </CharString>
                <CharString name="asciitilde">
                    196 74 70 74 hstem
36 478 vstem
373 196 rmoveto
62 40 67 122 39 hvcurveto
-54 21 rlineto
-78 -28 -25 -58 -31 -51 -65 144 -81 hhcurveto
-61 -45 -70 -119 -37 hvcurveto
54 -21 rlineto
78 27 25 58 31 52 67 -144 81 hhcurveto
endchar
                </CharString>
                <CharString name="asterisk">
                    275 416 hstem
68 428 vstem
366 275 rmoveto
45 28 -62 141 147 53 -13 50 -154 -15 -5 156 -54 3 -33 -152 -147 44 -22 -49 135 -79 -87 -126 41 -35 115 102 rlineto
endchar
                </CharString>
                <CharString name="asterisk.alt">
                    642 -20 hstemhm
243 38.5 -11.5 38 hintmask 10100000
308 549 rmoveto
39 134 -76 14 -2 -141 rlineto
-40 -15 rmoveto
-97 101 -49 -59 120 -74 rlineto
151 -25 rmoveto
136 34 -26 72 -124 -68 rlineto
-143 -53 rmoveto
-136 -35 26 -71 124 67 rlineto
111 -18 rmoveto
98 -102 49 59 -120 75 rlineto
hintmask 11000000
-106 -40 rmoveto
-39 -135 76 -13 3 141 rlineto
endchar
                </CharString>
                <CharString name="at">
                    -157 66 150 64 289 67 138 66 hstem
50 69 94 73 132 71 vstem
449 -152 rmoveto
65 vlineto
-267 -32 -63 138 236 vvcurveto
241 86 121 108 67 31 -47 -91 6 vhcurveto
-121 6 -83 -78 -160 vvcurveto
-115 48 -73 67 40 27 18 33 28 vhcurveto
1 -16 2 -19 1 -9 67 8 rcurveline
-2 92 -3 87 197 vvcurveto
150 -51 83 -116 -157 -115 -171 -267 -260 92 -176 307 39 vhcurveto
-95 275 rmoveto
-45 -23 48 90 107 29 62 103 -22 hvcurveto
-252 vlineto
-19 -18 -21 -14 -25 hhcurveto
endchar
                </CharString>
                <CharString name="atilde">
                    -55 callgsubr
72 92 callgsubr
7 callgsubr
hintmask 1001111110000000
350 571 -89 callgsubr
-102 -519 -86 callgsubr
hintmask 0101111110000000
43 callgsubr
hintmask 0011111110000000
-102 callgsubr
hintmask 1001111110000000
-45 callsubr
hintmask 0101111110000000
-33 callsubr
                </CharString>
                <CharString name="b">
                    -12 70 376 67 198 38 callgsubr
90 81 243 80 hintmask 11011100
234 -12 rmoveto
136 124 106 173 143 -77 91 -105 -58 -47 -25 -30 -36 hvcurveto
260 vlineto
hintmask 11101100
75 callgsubr
-686 vlineto
hintmask 11011100
-16 45 48 -9 51 hhcurveto
28 70 rmoveto
-30 -30 6 11 -31 hvcurveto
320 vlineto
24 32 39 15 38 hhcurveto
78 56 -65 -122 -125 -64 -64 -88 hvcurveto
endchar
                </CharString>
                <CharString name="backslash">
                    -181 905 hstem
4 538 vstem
74 724 rmoveto
-70 -30 464 -875 74 22 rlineto
endchar
                </CharString>
                <CharString name="bar">
                    704 -20 hstem
239 75 vstem
239 704 rmoveto
-886 75 892 vlineto
endchar
                </CharString>
                <CharString name="braceleft">
                    229 54 callsubr
-209 -60 callsubr
                </CharString>
                <CharString name="braceleft.cap">
                    277 54 callsubr
-161 -60 callsubr
                </CharString>
                <CharString name="braceright">
                    231 58 77 callsubr
hintmask 10001000
93 -208 67 callsubr
hintmask 11001000
76 callsubr
hintmask 10101000
-110 7 -48 31 38 vvcurveto
hintmask 10010000
19 callgsubr
hintmask 10101000
-39 32 -40 83 -20 vhcurveto
hintmask 11001000
-84 -24 -32 -41 -36 vvcurveto
hintmask 10001000
58 callsubr
                </CharString>
                <CharString name="braceright.cap">
                    278 58 372 -20 77 callsubr
hintmask 11000100
93 -161 67 callsubr
hintmask 11100100
76 callsubr
hintmask 11010100
-110 7 -48 31 38 vvcurveto
hintmask 11001000
19 callgsubr
hintmask 11010100
-39 32 -40 83 -20 vhcurveto
hintmask 11100100
-84 -24 -32 -41 -36 vvcurveto
hintmask 11000100
58 callsubr
                </CharString>
                <CharString name="bracketleft">
                    -179 71 callsubr
-179 45 callsubr
                </CharString>
                <CharString name="bracketleft.cap">
                    -131 71 callsubr
-131 45 callsubr
                </CharString>
                <CharString name="bracketright">
                    -178 76 callgsubr
-112 46 callgsubr
                </CharString>
                <CharString name="bracketright.cap">
                    -131 76 callgsubr
-65 46 callgsubr
                </CharString>
                <CharString name="breve">
                    565 66 hstem
87 378 vstem
272 565 -104 callsubr
endchar
                </CharString>
                <CharString name="bullet">
                    172 252 hstem
145 259 vstem
404 300 rmoveto
73 -54 51 -74 -72 -59 -50 -77 -74 55 -51 74 73 57 50 78 vhcurveto
endchar
                </CharString>
                <CharString name="bullet.alt">
                    189 217 hstem
168 213 vstem
380 189 rmoveto
2 217 rlineto
-213 hlineto
-2 -217 rlineto
endchar
                </CharString>
                <CharString name="c">
                    73 callgsubr
hstem
80 80 vstem
80 237 -70 callgsubr
                </CharString>
                <CharString name="cacute">
                    73 callgsubr
hstem
80 80 vstem
196 -61 callgsubr
-116 -357 -70 callgsubr
                </CharString>
                <CharString name="caron">
                    634 61 callsubr
97 356 hintmask 10110000
277 555 -72 callgsubr
rlineto
hintmask 11010000
-33 callgsubr
rlineto
hintmask 10110000
-14 callgsubr
endchar
                </CharString>
                <CharString name="caron.alt">
                    552 251 hstem
230 78 vstem
203 565 -42 callgsubr
endchar
                </CharString>
                <CharString name="ccaron">
                    73 callgsubr
137 61 callsubr
80 80 hintmask 11101100
309 12 callgsubr
-225 -318 -70 callgsubr
                </CharString>
                <CharString name="ccedilla">
                    -4 68 -62 -21 40 -21 420 77 hstemhm
80 80 170 72 hintmask 10011100
402 -117 rmoveto
hintmask 00111100
35 -30 40 -71 42 vhcurveto
hintmask 10011100
44 -7 53 -1 62 4 9 68 rcurveline
-62 callsubr
hintmask 01011100
-106 41 -86 129 -35 vhcurveto
-14 -29 17 callsubr
                </CharString>
                <CharString name="cdotaccent">
                    73 callgsubr
72 81 callgsubr
80 80 101.5 84 vstem
343 569 -50 callgsubr
-180 -332 -70 callgsubr
                </CharString>
                <CharString name="cedilla">
                    9 -21 hstem
323 72 vstem
229 -12 rmoveto
-12 callsubr
6 -64 rlineto
37 callgsubr
42 -42 48 -103 50 vhcurveto
endchar
                </CharString>
                <CharString name="cent">
                    34 69 306 75 136 -20 hstem
76 76 vstem
152 271 rmoveto
63 32 54 119 18 vhcurveto
-35 -274 rlineto
-83 28 -33 48 63 vvcurveto
292 -237 rmoveto
9 69 -50 2 -43 5 -36 7 rlinecurve
36 294 31 1 35 0 40 -3 rlinecurve
9 75 -37 2 -33 -1 -31 -2 rlinecurve
19 137 rlineto
-71 hlineto
-17 -144 rlineto
-177 -29 -52 -92 -94 vvcurveto
-89 46 -73 130 -38 vhcurveto
-19 -146 rlineto
71 hlineto
14 131 37 -6 42 -4 47 -2 rlinecurve
endchar
                </CharString>
                <CharString name="check.1">
                    2 -21 hstem
69 440 vstem
509 657 rmoveto
-82 26 -69 -176 -59 -203 -45 -219 rlinecurve
-4 hlineto
-111 270 -70 -31 150 -349 71 6 58 243 73 226 88 207 rlinecurve
endchar
                </CharString>
                <CharString name="check.2">
                    9 -21 26 -21 34 -21 500 -20 hstemhm
87 406 hintmask 01011000
354 -7 rmoveto
78 18 -135 261 196 383 -80 31 -159 -352 -84 172 -75 -27 116 -217 rlineto
hintmask 00111000
-124 -256 rlineto
hintmask 10011000
52 -18 112 218 rlineto
endchar
                </CharString>
                <CharString name="circumflex">
                    560 193 hstem
97 356 vstem
402 560 -101 callsubr
endchar
                </CharString>
                <CharString name="colon">
                    0 116 213 117 hstemhm
213 119 -111.5 81 callsubr
329 rmoveto
2 77 callgsubr
hintmask 11100000
110 -329 rmoveto
4 61 callgsubr
-4 -116 rlineto
endchar
                </CharString>
                <CharString name="colon.alt">
                    87 116 214 116 hstemhm
217 119 -115.5 81 callsubr
417 rmoveto
2 61 callgsubr
-1 -116 rlineto
hintmask 11100000
115 -330 rmoveto
2 61 callgsubr
-2 -116 rlineto
endchar
                </CharString>
                <CharString name="colonmonetary">
                    22 70 432 74 hstemhm
64 73 52.5 -9 callsubr
-2 58.5 14.5 -9 callsubr
0.5 58.5 hintmask 11110100
334 111 rmoveto
-28 6 -25 7 -22 9 33 363 rcurveline
22 7 26 6 29 4 rrcurveto
-232 -201 rmoveto
74 28 56 77 36 vhcurveto
-28 -323 rlineto
-54 34 -23 50 73 vvcurveto
176 -386 rmoveto
58 hlineto
9 105 rlineto
hintmask 11101010
26 -4 29 -3 30 -2 14 70 rcurveline
-36 3 -33 4 -30 4 37 416 rcurveline
26 2 28 2 31 1 -4 74 rcurveline
-24 -1 -23 -1 -21 -3 9 100 rcurveline
-58 hlineto
-10 -107 -26 -4 -24 -6 -23 -6 rlinecurve
11 123 rlineto
-58 hlineto
-12 -143 rlineto
-129 -54 -46 -92 -105 vvcurveto
-103 41 -70 92 -45 vhcurveto
hintmask 11110100
-15 -155 rlineto
59 hlineto
12 133 21 -7 24 -6 25 -5 rlinecurve
endchar
                </CharString>
                <CharString name="comma">
                    80 callsubr
hstem
244 92 vstem
189 -172 rmoveto
42 -13 87 81 42 113 -38 113 rlinecurve
-112 -6 52 -110 -7 -100 -66 -78 rlinecurve
endchar
                </CharString>
                <CharString name="commaaccent">
                    -277 210 hstem
235 82 vstem
211 -58 callsubr
                </CharString>
                <CharString name="commaaccent.rot">
                    565 210 hstem
226 82 vstem
332 762 45 callgsubr
endchar
                </CharString>
                <CharString name="copyright">
                    7 45 91 54 227 58 86 45 hstem
43 49 84 59 224 48 vstem
507 314 rmoveto
187 -93 112 -130 -134 -107 -123 -184 -191 100 -108 135 130 99 113 194 vhcurveto
-415 -5 rmoveto
160 81 99 109 104 73 -97 -160 -167 -75 -92 -102 -108 -82 92 165 vhcurveto
260 -112 rmoveto
-93 -4 -24 41 80 vvcurveto
65 15 42 99 3 vhcurveto
-4 58 rlineto
-126 -9 -43 -75 -89 vvcurveto
-101 42 -74 128 9 vhcurveto
endchar
                </CharString>
                <CharString name="d">
                    35 callsubr
90 callgsubr
271 55 12 callsubr
hintmask 0101001110000000
118 -57 rmoveto
hintmask 0011001110000000
36 callsubr
218 vlineto
hintmask 1000110110000000
75 callgsubr
-201 vlineto
90 callgsubr
19 callsubr
                </CharString>
                <CharString name="dagger">
                    470 52 callgsubr
-60.5 52 callgsubr
hstemhm
237.5 68.5 -68 78 hintmask 10100000
298 127 rmoveto
16 344 172 -2 4 64 rlineto
hintmask 10010000
84 callgsubr
hintmask 01010000
-159 vlineto
-168 3 -3 -65 rlineto
hintmask 01100000
171 -2 -1 -365 13 -7 rlineto
endchar
                </CharString>
                <CharString name="daggerdbl">
                    271.5 62 -58 62 135 62 -58 62 hstemhm
238 52 callgsubr
-64.5 78 hintmask 01101000
299 75 rmoveto
hintmask 10101000
7 198 174 -3 4 62 -175 3 5 139 172 -3 4 62 rlineto
hintmask 01100100
84 callgsubr
hintmask 01010100
-159 vlineto
-168 3 -3 -62 rlineto
hintmask 01011000
171 -3 rlineto
-139 vlineto
-174 3 -4 -62 178 -3 rlineto
-217 vlineto
12 -7 rlineto
endchar
                </CharString>
                <CharString name="dcaron">
                    35 callsubr
94 78 hintmask 1001001111000000
525 565 -42 callgsubr
-254 -510 12 callsubr
hintmask 0101001111000000
118 -57 rmoveto
hintmask 0011001111000000
36 callsubr
218 vlineto
hintmask 1000110111000000
75 callgsubr
-201 vlineto
hintmask 1001001111000000
19 callsubr
                </CharString>
                <CharString name="dcroat">
                    -12 67 -36 -21 25 -21 429 68 -3 -20 102 53 -53 125 hstemhm
56 80 240 82 hintmask 1001010110000000
271 55 rmoveto
-79 -56 61 125 123 70 67 90 26 26 -5 -9 28 hvcurveto
1 -137 1 -99 2 -85 rrcurveto
-24 -31 -37 -17 -41 hhcurveto
hintmask 0101010110000000
118 -57 rmoveto
hintmask 0011010110000000
36 callsubr
90 69 53 -69 vlineto
90 callgsubr
72 vlineto
-82 -7 rlineto
hintmask 1000110110000000
-65 -131 -53 131 -82 vlineto
hintmask 1001010110000000
60 callsubr
-127 -101 -178 29 callsubr
                </CharString>
                <CharString name="degree">
                    313 61 240 62 hstem
100 66 218 66 vstem
450 498 rmoveto
109 -72 69 -97 -96 -85 -73 -113 -109 73 -68 96 96 85 72 113 vhcurveto
-66 hmoveto
-76 -1 -47 -48 -62 hhcurveto
-64 -45 52 68 1 hvcurveto
73 1 47 47 62 hhcurveto
64 45 -50 -66 -1 hvcurveto
endchar
                </CharString>
                <CharString name="dieresis">
                    569 81 callgsubr
125.5 -76 callgsubr
vstem
427 569 -95 callgsubr
endchar
                </CharString>
                <CharString name="divide">
                    66 94 99 68 99 93 hstem
229.5 90.5 vstem
319 426 rmoveto
2 93 rlineto
-91 hlineto
-1 -93 rlineto
260 -99 rmoveto
-428 -68 427 hlineto
-169 -193 rmoveto
2 94 rlineto
-91 hlineto
-1 -94 rlineto
endchar
                </CharString>
                <CharString name="dollar">
                    28 68 426 62 -61 68 112 -20 hstemhm
90 85 212 85 hintmask 10111100
175 464 rmoveto
34 34 24 86 1 vhcurveto
-28 -156 rlineto
-51 32 -41 31 34 vvcurveto
212 -299 rmoveto
-37 -37 -27 -85 -5 vhcurveto
30 167 rlineto
51 -32 41 -31 -35 vvcurveto
-144 -249 rmoveto
18 112 rlineto
150 13 61 63 66 vvcurveto
69 -81 52 -78 48 vhcurveto
hintmask 11011100
34 183 32 -2 37 -5 43 -7 rlinecurve
9 76 -36 5 -32 2 -30 1 rlinecurve
22 111 rlineto
-73 hlineto
hintmask 10111100
-19 -112 rlineto
-150 -10 -60 -60 -65 vvcurveto
-68 82 -51 78 -47 vhcurveto
-36 -194 -36 1 -43 5 -49 8 rlinecurve
-15 -76 44 -6 40 -2 36 -1 rlinecurve
-21 -109 rlineto
endchar
                </CharString>
                <CharString name="dotaccent">
                    569 81 callgsubr
232.5 84 vstem
314 569 -50 callgsubr
endchar
                </CharString>
                <CharString name="dotlessi">
                    46 callsubr
514 hmoveto
-64 callgsubr
                </CharString>
                <CharString name="e">
                    -22 callgsubr
11 callgsubr
456 -11 -107 callsubr
                </CharString>
                <CharString name="eacute">
                    -22 callgsubr
11 callgsubr
180 601 -107 callgsubr
276 -612 -107 callsubr
                </CharString>
                <CharString name="ebreve">
                    -22 callgsubr
70 66 11 callgsubr
284 572 -104 callsubr
172 -583 -107 callsubr
                </CharString>
                <CharString name="ecaron">
                    -22 callgsubr
139 -20 84 -20 11 callgsubr
293 562 -93 callsubr
167 -573 -107 callsubr
                </CharString>
                <CharString name="ecircumflex">
                    -22 callgsubr
11 callgsubr
412 567 -101 callsubr
177 -692 -107 callsubr
                </CharString>
                <CharString name="edieresis">
                    -22 callgsubr
74 44 callgsubr
66 80 -10.5 -76 callgsubr
-33 79 hintmask 11110110
437 576 -95 callgsubr
hintmask 11111001
321 -587 -107 callsubr
                </CharString>
                <CharString name="edotaccent">
                    -22 callgsubr
74 136 91 callsubr
99.5 84 51 callgsubr
79 vstem
327 576 -50 callgsubr
212 -587 -107 callsubr
                </CharString>
                <CharString name="egrave">
                    -22 callgsubr
206 -20 11 callgsubr
386 595 -94 callgsubr
94 -570 -107 callsubr
                </CharString>
                <CharString name="eight">
                    -12 63 518 63 hstemhm
71 78 -67 78 232 76 -67 79 hintmask 11100100
264 -12 rmoveto
131 85 74 93 79 -70 47 -75 41 hvcurveto
hintmask 11011000
83 40 50 50 76 vvcurveto
88 -80 56 -105 -130 -71 -81 -79 -72 59 -47 68 -40 vhcurveto
hintmask 11100100
-84 -43 -54 -58 -75 vvcurveto
-91 81 -58 112 vhcurveto
hintmask 11011000
-104 494 rmoveto
45 39 42 77 75 41 -41 -55 -52 -38 -42 -63 -32 vhcurveto
-70 37 -61 38 60 vvcurveto
hintmask 11100100
115 -431 rmoveto
-82 -44 43 61 53 37 46 67 33 hvcurveto
76 -42 72 -40 -61 vvcurveto
-53 -49 -40 -77 vhcurveto
endchar
                </CharString>
                <CharString name="eight.den">
                    -220 50 177 -21 28 -21 151 9 callsubr
hintmask 10111001
267 -220 rmoveto
-41 callsubr
hintmask 10110110
-58 callgsubr
vhcurveto
hintmask 11010101
5 callsubr
hintmask 10111001
-21 callsubr
hintmask 10110110
-87 callsubr
hintmask 10111001
-91 callsubr
                </CharString>
                <CharString name="eight.inf">
                    -160 0 callsubr
-160 -91 callgsubr
                </CharString>
                <CharString name="eight.num">
                    415 50 156 -20 27 -20 171 9 callsubr
hintmask 10111001
267 415 rmoveto
-41 callsubr
hintmask 11010110
-32 callgsubr
hintmask 11011001
6 callsubr
hintmask 10111001
26 callgsubr
hintmask 10110110
-87 callsubr
hintmask 11011001
-91 callsubr
                </CharString>
                <CharString name="eight.small">
                    -10 0 callsubr
-10 -91 callgsubr
                </CharString>
                <CharString name="eight.sup">
                    315 0 callsubr
315 -91 callgsubr
                </CharString>
                <CharString name="ellipsis">
                    0 120 hstem
42.5 98 85 98 85 98 cntrmask 01110000
504 40 callsubr
-85 40 callsubr
-85 40 callsubr
endchar
                </CharString>
                <CharString name="emacron">
                    -22 callgsubr
109 70 11 callgsubr
452 681 -27 callsubr
4 -622 -107 callsubr
                </CharString>
                <CharString name="emdash">
                    262 62 hstem
55 444 vstem
499 324 rmoveto
-444 -62 439 hlineto
endchar
                </CharString>
                <CharString name="endash">
                    262 62 hstem
74 407 vstem
481 324 rmoveto
-407 -62 400 hlineto
endchar
                </CharString>
                <CharString name="eogonek">
                    -214 65 147 60 -46 -21 237 54 153 67 hstemhm
66 80 101 76 82 79 hintmask 11011111
432 -214 rmoveto
8 65 rlineto
-85 8 -32 17 24 vvcurveto
hintmask 10111111
22 29 29 104 40 vhcurveto
hintmask 11011111
8 67 -98 callgsubr
-149 78 -86 230 -5 hvcurveto
-92 -43 -35 -39 -39 vvcurveto
-45 50 -36 135 -10 vhcurveto
-149 649 -88 callgsubr
                </CharString>
                <CharString name="equal">
                    151 84 callsubr
472 442 rmoveto
-394 -69 393 hlineto
1 -153 rmoveto
-394 -69 393 hlineto
endchar
                </CharString>
                <CharString name="eth">
                    -13 67 341 64 166 -20 103 -20 hstem
56 80 277 78 vstem
264 -13 rmoveto
121 106 91 173 126 -48 111 -102 100 hvcurveto
93 47 -19 48 -115 -58 -34 28 -38 28 -43 27 rlinecurve
-50 -51 36 -22 32 -22 28 -23 rlinecurve
-110 -56 20 -47 131 66 32 -30 26 -32 21 -32 rlinecurve
-148 17 -147 -85 -174 vvcurveto
-143 93 -87 115 vhcurveto
11 67 rmoveto
-81 -58 67 106 129 88 77 167 -57 hvcurveto
15 -42 7 -44 -46 vvcurveto
-124 -55 -66 -83 vhcurveto
endchar
                </CharString>
                <CharString name="exclam">
                    0 110 hstemhm
216 113.5 -77.5 84 hintmask 10100000
305 234 rmoveto
2 87 25 264 4 91 rrcurveto
-103 hlineto
2 -91 17 -264 -87 vvcurveto
hintmask 11000000
76 -234 rmoveto
3 110 rlineto
-114 hlineto
-2 -110 rlineto
endchar
                </CharString>
                <CharString name="exclamdown">
                    510 110 hstem
221 113.5 vstem
222 620 rmoveto
-2 -110 rlineto
114 hlineto
1 110 rlineto
-90 -233 rmoveto
-2 -87 -25 -264 -4 -92 rrcurveto
104 hlineto
-2 92 -18 264 87 vvcurveto
endchar
                </CharString>
                <CharString name="f">
                    0 61 355 62 151 79 hstem
215 81 vstem
472 61 rmoveto
-176 355 186 62 -186 12 hlineto
104 25 26 193 9 vhcurveto
-6 79 rlineto
-225 -12 -68 -89 -129 vvcurveto
-133 hlineto
-7 -62 rlineto
140 -355 -134 -61 384 hlineto
endchar
                </CharString>
                <CharString name="five">
                    9 -21 561 71 hstem
114 25 callsubr
208.5 76 vstem
471 206 rmoveto
80 -68 69 -222 23 vhcurveto
11 171 rlineto
253 hlineto
7 71 rlineto
-328 hlineto
-20 -297 rlineto
220 -17 71 -47 -57 vvcurveto
-74 -79 -44 -226 -21 vhcurveto
5 -75 rlineto
261 20 115 86 112 vvcurveto
endchar
                </CharString>
                <CharString name="five.den">
                    -221 61 168 -21 141 -25 callgsubr
-81 -105 callsubr
                </CharString>
                <CharString name="five.inf">
                    -161 -8 callgsubr
-21 -105 callsubr
                </CharString>
                <CharString name="five.num">
                    414 61 288 57 hstem
154.5 57.5 148 62 vstem
-27 callgsubr
endchar
                </CharString>
                <CharString name="five.small">
                    -11 -8 callgsubr
129 -105 callsubr
                </CharString>
                <CharString name="five.sup">
                    314 -8 callgsubr
454 -105 callsubr
                </CharString>
                <CharString name="fiveeighths">
                    2 callgsubr
82 61 288 57 6 callgsubr
-41.5 86 callsubr
-61 67 hintmask 1011111001100000
-39 callgsubr
hintmask 1011111100010000
206 -552 rmoveto
-41 callsubr
hintmask 1011111010100000
-58 callgsubr
vhcurveto
hintmask 1101111010100000
5 callsubr
hintmask 1011111100100000
6 callsubr
hintmask 1011111100010000
26 callgsubr
hintmask 1011111010100000
-87 callsubr
hintmask 1011111100010000
-91 callsubr
                </CharString>
                <CharString name="fivesixths">
                    82 callsubr
82 61 288 57 hstemhm
121 62 -28.5 86 callsubr
-54 62 hintmask 1111101100000000
-39 callgsubr
hintmask 1110110010000000
214 -551 -102 callsubr
                </CharString>
                <CharString name="four">
                    0 199 -71 71 422 -20 26 -20 hstemhm
82 64 213 76 hintmask 01011100
503 128 rmoveto
8 71 rlineto
-76 226 hlineto
-76 -9 rlineto
-217 -213 vlineto
hintmask 01101100
4 57 64 273 22 92 rrcurveto
hintmask 01011100
-87 6 -46 -185 -24 -195 3 -119 rlinecurve
277 hlineto
hintmask 10011100
-128 76 vlineto
hintmask 01011100
128 vlineto
endchar
                </CharString>
                <CharString name="four.den">
                    -129.5 16 callsubr
-130 -89 callsubr
                </CharString>
                <CharString name="four.inf">
                    -69.5 54 21.5 -21 hstemhm
-9 callgsubr
hintmask 10010000
445 -70 64 callgsubr
rlineto
hintmask 01110000
-48 callsubr
rlineto
hintmask 10110000
-15 callsubr
203 1 rcurveline
-2 callsubr
endchar
                </CharString>
                <CharString name="four.num">
                    505.5 16 callsubr
505 -89 callsubr
                </CharString>
                <CharString name="four.small">
                    0 134.5 -54 54 hstemhm
-9 callgsubr
hintmask 01010000
445 80 rmoveto
hintmask 10110000
-44 callsubr
-48 callsubr
rlineto
hintmask 01110000
-15 callsubr
203 1 rcurveline
hintmask 10010000
-1 -81 rlineto
62 hlineto
hintmask 01010000
-1 81 rlineto
endchar
                </CharString>
                <CharString name="four.sup">
                    405.5 16 callsubr
405 -89 callsubr
                </CharString>
                <CharString name="fourfifths">
                    13 callsubr
173.5 54 hstemhm
130 56 -31.5 -9 callsubr
121 34 callgsubr
-33.5 62 hintmask 1111101100000000
445 505 64 callgsubr
rlineto
hintmask 1111110100000000
-82 callsubr
-332 -229 -46 callsubr
hintmask 1111101010000000
-80 callgsubr
                </CharString>
                <CharString name="fraction">
                    -160 914 hstem
34 475 vstem
103 -160 rmoveto
406 885 -69 29 -406 -885 rlineto
endchar
                </CharString>
                <CharString name="fraction.afrc">
                    277 55 hstem
61 428 vstem
61 277 -46 callsubr
endchar
                </CharString>
                <CharString name="g">
                    32 callsubr
hstem
58 80 245 80 vstem
126 -173 -99 callgsubr
                </CharString>
                <CharString name="gbreve">
                    32 callsubr
70 66 hstem
58 80 245 80 vstem
286 571 -104 callsubr
-160 -744 -99 callgsubr
                </CharString>
                <CharString name="gcommaaccent">
                    32 callsubr
hstem
58 80 98 82 65 80 vstem
342 768 45 callgsubr
-216 -941 -99 callgsubr
                </CharString>
                <CharString name="gdotaccent">
                    32 callsubr
74 81 callgsubr
58 80 109.5 84 51.5 80 vstem
329 575 -50 callgsubr
-120 -748 -99 callgsubr
                </CharString>
                <CharString name="germandbls">
                    -6 70 -64 64 573 70 hstemhm
83 80 97 79 23 81 -7 80 hintmask 10111010
339 355 rmoveto
hintmask 01111100
55 104 47 112 vvcurveto
67 -46 71 -105 -135 -74 -104 -142 vhcurveto
-461 80 479 vlineto
104 37 54 74 60 28 -41 -44 vhcurveto
-79 -102 -51 -77 vvcurveto
hintmask 10111010
-110 176 -29 -74 vvcurveto
-45 -49 -34 -123 14 vhcurveto
-3 -73 rlineto
192 -11 63 78 76 114 -177 35 69 vvcurveto
endchar
                </CharString>
                <CharString name="grave">
                    701 -20 hstem
137 257 vstem
394 588 -94 callgsubr
endchar
                </CharString>
                <CharString name="greater">
                    -1 -21 hstem
391 74 vstem
132 -22 rmoveto
333 280 rlineto
69 vlineto
-327 275 -47 -58 300 -247 rlineto
-10 vlineto
-304 -252 rlineto
endchar
                </CharString>
                <CharString name="greaterequal">
                    15 69 hstem
383 89 callsubr
vstem
383 358 rmoveto
-8 vlineto
-289 -152 27 -64 346 184 -1 65 -338 211 -33 -61 rlineto
-20 -449 rmoveto
-69 400 69 vlineto
endchar
                </CharString>
                <CharString name="guillemotleft">
                    4 -21 523 -20 hstem
284 58 vstem
213 -17 -19 callsubr
                </CharString>
                <CharString name="guillemotleft.cap">
                    47 523 hstem
284 58 vstem
213 47 -19 callsubr
                </CharString>
                <CharString name="guillemotright">
                    4 -21 523 -20 hstem
209 58 vstem
334 -17 -22 callsubr
                </CharString>
                <CharString name="guillemotright.cap">
                    47 523 hstem
209 58 vstem
334 47 -22 callsubr
                </CharString>
                <CharString name="guilsinglleft">
                    4 -21 524 -20 87 callsubr
-17 36 callgsubr
                </CharString>
                <CharString name="guilsinglleft.cap">
                    47 524 87 callsubr
47 36 callgsubr
                </CharString>
                <CharString name="guilsinglright">
                    4 -21 524 -20 87 callgsubr
-17 28 callgsubr
                </CharString>
                <CharString name="guilsinglright.cap">
                    47 524 87 callgsubr
47 28 callgsubr
                </CharString>
                <CharString name="h">
                    21 -21 432 69 198 38 callgsubr
88 81 221 27 callsubr
-65 -51 -27 -32 -40 vhcurveto
264 vlineto
hintmask 11101100
75 callgsubr
-699 81 392 vlineto
hintmask 11011100
88 callsubr
                </CharString>
                <CharString name="hbar">
                    21 -21 432 67 79 53 -53 128 -7 -20 hstemhm
88 81 221 81 hintmask 11101110
291 432 -37 callgsubr
118 -58 49 -88 -65 -51 -27 -32 -40 vhcurveto
138 131 53 -131 vlineto
hintmask 11010110
75 vlineto
hintmask 11101110
75 callgsubr
-68 -70 -53 70 -578 81 392 vlineto
88 callsubr
                </CharString>
                <CharString name="hcoslug">
                    -100 75 4 9 -8 10 -10 14 -4 11 -10 10 -9 7 0 12 -11 11 -7 15 -15 26 -25 26 -15 8 -8 15 -12 12 0 14 -9 10 -10 19 -9 11 2 8 -7 32 71.5 22.5 hstemhm
50 64 10 16 -3 8 5 40 -35 12 -1 12 14 10 -2 10 -10 42 -31 9 -1 7 3 12 -6 11 9 40 -29 13 -9 10 0 12 -4 11 -2 12 -5 16 18 11 10 8 hintmask 001000000000000010000010000010000010000010010000
500 700 rmoveto
-450 hlineto
hintmask 100000000000000000001110000000100000001000000000
-800 450 vlineto
-300 396 rmoveto
-17 11 -11 17 -16 vhcurveto
9 13 5 12 12 vvcurveto
18 -9 11 -13 -12 -8 -9 -13 vhcurveto
49 -64 rmoveto
12 -12 9 -12 9 -11 15 25 3 18 -17 17 -7 -7 -10 -9 -14 -9 rrcurveto
-39 -93 rmoveto
12 9 3 6 8 hvcurveto
-21 27 -21 22 -14 13 rrcurveto
-8 -8 -4 -11 -11 vvcurveto
-23 17 -18 22 vhcurveto
91 34 rmoveto
-22 19 13 -9 15 hhcurveto
15 9 9 13 8 hvcurveto
5 -1 rlineto
-44 -1 -27 -27 -32 hhcurveto
-22 -17 8 26 -25 hvcurveto
-23 -21 -25 -11 -32 hhcurveto
-45 -36 30 40 31 21 24 40 13 hvcurveto
-16 17 -7 13 22 vvcurveto
32 31 32 51 46 25 -30 -26 -10 -2 -8 -5 -7 vhcurveto
20 15 -8 -20 2 hvcurveto
18 12 14 10 19 hhcurveto
21 16 -15 -24 -23 -16 -17 -21 -14 -12 7 12 -6 hvcurveto
-12 -7 -12 -10 -11 -15 rrcurveto
hintmask 000000000000000000001000000000000100000000000000
-72 -105 rmoveto
-8 10 -5 -10 vlineto
hintmask 000000000000000001000000000000000100000000000000
-15 vlineto
-3 1 -1 2 2 1 1 4 1 vhcurveto
4 -1 rlineto
-2 -7 -3 -3 -6 -6 -3 4 43 callsubr
hintmask 000000000000000000100000000000010000000000000000
15 -5 5 5 7 vlineto
hintmask 000000000000000010000000100000000000000000000000
-75 -21 28 callsubr
50 callgsubr
22 hmoveto
-13 callgsubr
hintmask 000000000000000100000000000000000000000100000000
132 -1 rmoveto
0 6 -2 4 -3 -5 -1 -5 43 callsubr
0 -6 1 -4 5 3 2 4 43 callsubr
50 callgsubr
-120 -9 rmoveto
4 hlineto
hintmask 000000000000000000100010000000000000000000000000
19 -4 5 vlineto
hintmask 000000000000000000001000000010000000000000000000
13 -6 hlineto
4 2 3 3 5 hhcurveto
7 2 -5 -6 hvcurveto
hintmask 000000000000000010000000000000010000000000000000
-14 5 -5 vlineto
hintmask 000000000001000000000000000010000000000000000000
-17 5 3 hlineto
hintmask 000000000000000000100000000010000000000000000000
13 vlineto
3 -1 3 -3 -3 -3 -3 -5 vhcurveto
-11 3 -5 vlineto
50 callgsubr
-16 hlineto
-71 5 rmoveto
6 hlineto
hintmask 000000000000000000010010000000000000000000000000
31 -6 5 vlineto
hintmask 000000000000000000001000001000000000000000000000
38 hlineto
hintmask 000000000000000000100000001000000000000000000000
-15 -5 vlineto
8 -2 -1 2 -6 hhcurveto
-8 hlineto
hintmask 000000000000000000010001000000000000000000000000
-14 3 vlineto
4 0 1 5 1 hvcurveto
5 hlineto
hintmask 000000000000000010000000100000000000000000000000
-17 -5 vlineto
5 -1 0 1 -4 hhcurveto
-3 hlineto
hintmask 000000000000000010000001000000000000000000000000
-12 7 -5 vlineto
50 callgsubr
-23 hlineto
hintmask 000000000000000001000000000000000100000000000000
133 10 rmoveto
5 hlineto
-4 3 3 -3 3 hhcurveto
3 1 2 1 hvcurveto
hintmask 000000000000000000010000000000000100000000000000
7 -18 -4 12 vvcurveto
4 4 5 7 3 3 -1 -3 2 vhcurveto
1 4 rlineto
5 -10 -5 hlineto
4 -3 -2 1 -3 hhcurveto
-2 -2 -1 -2 hvcurveto
hintmask 000000000001000000000000000000000000100000000000
-5 18 2 -11 vvcurveto
-5 -3 -4 -7 -5 -3 2 2 -2 vhcurveto
-1 -3 rlineto
-5 hlineto
hintmask 000000000000000000010000000000000000100000000000
38 38 rmoveto
-5 5 hlineto
hintmask 000000000000000000001000000000000000000100000000
14 hlineto
hintmask 000000000000000000010000000000000000000100000000
-20 vlineto
4 1 4 3 4 hhcurveto
hintmask 000000000010000000000000000000000000000010000000
7 0 5 -6 0 -9 0 -7 -3 -9 0 flex1
-6 -3 2 4 -2 hvcurveto
-3 -6 rlineto
-4 hlineto
hintmask 100000000000000000001000000000000000000010000000
39 -6 rmoveto
3 3 2 4 hvcurveto
-3 7 -9 18 0 vvcurveto
-3 5 18 -5 -4 hlineto
7 -15 6 15 rlineto
-4 5 13 -5 -4 hlineto
hintmask 000000000100000000000000000000000000000010000000
-10 -24 rlineto
-7 -3 -4 -5 -6 hhcurveto
-6 -3 3 4 3 2 2 3 hvcurveto
hintmask 100000000000000000001000000000000000000010000000
5 1 -5 -2 -2 hvcurveto
hintmask 000000001000000000000000000000000000000000000000
45 -24 rmoveto
-6 -4 vlineto
-2 -4 -2 -3 -3 -3 rrcurveto
2 -2 2 -2 1 1 1 1 1 hflex1
3 -1 rlineto
-5 -1 -2 -4 -6 hhcurveto
hintmask 100000000000000000000000000000000000000001000000
-4 0 -2 2 -3 3 -3 -3 -4 -2 -6 flex1
-7 -5 4 6 6 4 3 6 2 hvcurveto
-3 3 -2 3 4 vvcurveto
hintmask 000000000000100000000000000000000000000000100000
5 4 6 9 6 4 -4 -5 -5 -3 -2 -5 -3 vhcurveto
2 -2 4 -5 3 -3 2 2 2 3 1 2 rrcurveto
-5 6 hlineto
hintmask 000000000010000000000000000000000010000000000000
-114 4 rmoveto
11 4 hlineto
-3 -2 2 2 2 1 1 0 hvcurveto
0 -1 1 -2 -2 -2 -2 -6 vhcurveto
hintmask 100000000000000000000000000000000000000000010000
132 -13 rmoveto
hintmask 000010000000000000000000000000000000000000010000
15 9 8 11 vhcurveto
hintmask 000010000000000000000000000000000000000000000000
5 4 -2 -3 3 hvcurveto
4 6 vlineto
-16 -6 vlineto
hintmask 000000010000000000000000000000000000000000000000
9 -3 -2 3 -6 hhcurveto
-6 -4 -5 -12 hvcurveto
hintmask 010000000000000000000000000000000000000000000000
-11 4 -6 8 vhcurveto
hintmask 000001000000000000000000000000000000000000000000
6 3 6 6 1 hvcurveto
6 hlineto
hintmask 100000000000000000000000000000000000000000000000
-10 -1 -6 -7 -11 hhcurveto
hintmask 100000000000000000000000000000000000000000010000
-13 -8 7 14 hvcurveto
hintmask 000000010000000000000000000000000000000000100000
-29 4 rmoveto
2 1 2 3 3 vvcurveto
3 -2 2 -3 -2 -2 -1 -3 -2 2 -3 3 -3 vhcurveto
hintmask 001000000000000000000000000000000000010000000000
-68 -11 rmoveto
68 callgsubr
hintmask 100000000000000000000000000000000000010000000000
-6 -1 -4 -5 -8 hhcurveto
-10 -6 6 9 hvcurveto
hintmask 000000000001000000000000000000000000010000000000
10 7 6 8 11 4 -7 -10 -1 vhcurveto
hintmask 001000000000000000000000000001000000000000000000
-89 hmoveto
68 callgsubr
68 callsubr
-6 -1 -4 -5 -8 hhcurveto
hintmask 100000000000000000000000010000000000000000000000
-10 -6 6 9 hvcurveto
hintmask 000000000001000000000000010000000000000000000000
10 7 6 8 vhcurveto
hintmask 000000000001000000000000000000001000000000000000
11 4 -7 -10 -1 hvcurveto
hintmask 001000000000000000000010000001000000000000000000
-63 2 28 callsubr
252 hmoveto
hintmask 001000000000000000000000000000000000000000000000
41 callgsubr
hintmask 001000000000000000000010000001000000000000000000
40 callgsubr
hintmask 000000100000000000000000000001000000010000000000
-138 2 rmoveto
63 callsubr
-70 hmoveto
63 callsubr
hintmask 001000000000000000000000000100000000000000000000
-22 -2 rmoveto
-13 callgsubr
hintmask 001000000000000000000000000000000000000000000000
252 hmoveto
-13 callgsubr
68 callsubr
-208 -10 rmoveto
4 hlineto
hintmask 000000100000000000000000000000001000000000000000
19 -5 5 5 1 vlineto
hintmask 000000000000001000000000000000001000000000000000
10 7 4 6 4 2 -1 -1 2 vhcurveto
8 2 rlineto
hintmask 001000000000000000000000000000000000100000000000
-39 4 -5 vlineto
hintmask 100000000000000000000000000000000010000000000000
-17 5 4 hlineto
hintmask 000000100000000000000000000000000010000000000000
19 -11 vlineto
hintmask 001000000000000000000000000000000010000000000000
-19 4 -5 vlineto
68 callsubr
-17 hlineto
hintmask 100000000000000000000000000000000001000000000000
69 5 rmoveto
4 hlineto
hintmask 000000100000000000000000000000000001000000000000
19 -4 5 vlineto
hintmask 000000000001000000000000000000000000000001000000
13 -6 hlineto
5 2 3 2 4 hhcurveto
4 2 -2 -4 -3 -2 -2 -3 -2 -3 1 3 hvcurveto
1 vlineto
-1 -3 -3 -4 -1 hvcurveto
hintmask 001000000000000000000000000000000000000001000000
-12 6 -5 vlineto
hintmask 100000000000000000000000000000000001000000000000
-19 hlineto
hintmask 100000000000000000000010000000000000000000000000
-183 5 rmoveto
6 hlineto
hintmask 000000010000000000000010000000000000000000000000
31 -6 5 vlineto
hintmask 000000000000010000000001000000000000000000000000
21 -5 -5 hlineto
hintmask 000000010000000000000001000000000000000000000000
-12 16 12 -5 5 vlineto
hintmask 000000000000010000000000000100000000000000000000
21 -5 -6 hlineto
hintmask 001000000000000000000000000100000000000000000000
-31 6 -5 vlineto
hintmask 100000000000000000000001000000000000000000000000
-21 5 5 hlineto
hintmask 000100000000000000000001000000000000000000000000
14 -16 vlineto
hintmask 001000000000000000000001000000000000000000000000
-14 5 -5 vlineto
hintmask 100000000000000000000010000000000000000000000000
-21 hlineto
hintmask 001000000000000000000000000000000000000000100000
234 7 rmoveto
-2 2 -4 5 -4 4 rrcurveto
-2 -2 -1 -2 -3 vvcurveto
-4 3 -3 4 2 2 1 2 2 vhcurveto
hintmask 100000000000000000000000000000000000000000000000
111 -2 rmoveto
0 -3 -2 -3 -4 -4 -2 3 43 callsubr
0 3 2 3 4 4 2 -3 43 callsubr
endchar
                </CharString>
                <CharString name="hungarumlaut">
                    560 225 hstem
127 396 vstem
127 586 -82 callgsubr
endchar
                </CharString>
                <CharString name="hyphen">
                    258 69 hstem
119 317 vstem
436 327 rmoveto
-317 -69 311 hlineto
endchar
                </CharString>
                <CharString name="i">
                    53 callsubr
252 71 callgsubr
hintmask 11110000
57 callgsubr
265 -569 rmoveto
6 62 rlineto
hintmask 11101000
-73 callsubr
                </CharString>
                <CharString name="iacute">
                    46 callsubr
191 -61 callgsubr
323 -594 rmoveto
-64 callgsubr
                </CharString>
                <CharString name="ibreve">
                    25 callgsubr
75 66 51 callsubr
295 565 -104 callsubr
219 -565 rmoveto
-64 callgsubr
                </CharString>
                <CharString name="icircumflex">
                    46 callsubr
423 560 -101 callsubr
224 -674 rmoveto
-64 callgsubr
                </CharString>
                <CharString name="idieresis">
                    53 callsubr
146.5 -53 callsubr
26 81 30.5 -53 callsubr
hintmask 11101100
448 569 rmoveto
-97 callgsubr
hintmask 11111100
-80 callsubr
368 -569 rmoveto
6 62 rlineto
hintmask 11101100
-73 callsubr
                </CharString>
                <CharString name="igrave">
                    25 callgsubr
211 -20 51 callsubr
397 588 -94 callgsubr
141 -552 rmoveto
-64 callgsubr
                </CharString>
                <CharString name="imacron">
                    25 callgsubr
114 70 51 callsubr
463 674 -27 callsubr
51 -604 rmoveto
-64 callgsubr
                </CharString>
                <CharString name="iogonek">
                    53 callsubr
171 76 5 71 callgsubr
hintmask 11101000
57 callgsubr
115 -719 rmoveto
hintmask 11110100
-85 8 -32 17 26 vvcurveto
23 20 28 65 48 vhcurveto
182 hlineto
6 62 rlineto
hintmask 11100100
-63 callgsubr
vlineto
hintmask 11110100
-184 -62 189 hlineto
-63 -46 -26 -37 -37 vvcurveto
-50 89 callgsubr
                </CharString>
                <CharString name="j">
                    -175 77 526.5 11 callsubr
79 44 callgsubr
293 89 callsubr
-77.5 81 hintmask 11110000
374 569 rmoveto
5 -17 callsubr
-84 hlineto
-4 -136 rlineto
hintmask 11101000
89 -520 rmoveto
441 -290 vlineto
-6 -57 215 -9 rlineto
-391 vlineto
-99 -32 -24 -218 -8 vhcurveto
-2 -77 rlineto
254 8 79 73 143 vvcurveto
endchar
                </CharString>
                <CharString name="k">
                    35 callgsubr
hintmask 1001010110000000
90 callsubr
hintmask 0011100110000000
64 callsubr
hintmask 0011010110000000
56 callgsubr
hintmask 0101011010000000
66 callsubr
endchar
                </CharString>
                <CharString name="kcommaaccent">
                    35 callgsubr
76 82 hintmask 1001010111000000
90 callsubr
hintmask 0011100111000000
64 callsubr
hintmask 0011010111000000
56 callgsubr
hintmask 0101011011000000
66 callsubr
-21 -490 -100 callsubr
                </CharString>
                <CharString name="l">
                    0 62 574.5 61.5 -58 -20 hstemhm
237 8 callgsubr
endchar
                </CharString>
                <CharString name="lacute">
                    39 callgsubr
173 802 -107 callgsubr
299 -802 rmoveto
17 callgsubr
endchar
                </CharString>
                <CharString name="lcaron">
                    -25 callsubr
142 78 hintmask 11011000
434 565 -42 callgsubr
38 -565 rmoveto
4 callsubr
hintmask 10111000
-7 -58 rlineto
hintmask 11011000
4 callgsubr
endchar
                </CharString>
                <CharString name="lcommaaccent">
                    -25 callsubr
-75 8 callgsubr
hintmask 11001000
142 -58 callsubr
                </CharString>
                <CharString name="ldot">
                    0 62 203 109 262.5 -3 callgsubr
188 91.5 hintmask 11101100
472 hmoveto
4 callsubr
hintmask 11011100
-7 -58 rlineto
hintmask 11101100
4 callgsubr
518 265 rmoveto
5 109 rlineto
-91 hlineto
-6 -109 rlineto
endchar
                </CharString>
                <CharString name="less">
                    -1 -21 hstem
86 75 vstem
415 603 rmoveto
-329 -277 rlineto
-69 vlineto
332 -279 46 57 -303 252 rlineto
10 vlineto
299 248 rlineto
endchar
                </CharString>
                <CharString name="lessequal">
                    15 69 hstem
84 83 vstem
167 358 rmoveto
289 175 -34 61 -337 -211 -2 -65 346 -184 28 64 -290 152 rlineto
308 -266 rmoveto
-400 -69 400 hlineto
endchar
                </CharString>
                <CharString name="lslash">
                    39 callgsubr
472 hmoveto
7 62 rlineto
-160 294 hlineto
122 63 -13 55 -109 -56 rlineto
280 -226 vlineto
hintmask 10110000
-7 -58 rlineto
hintmask 11010000
151 -7 rlineto
-258 vlineto
-128 -66 13 -55 115 59 rlineto
-251 -159 -62 vlineto
endchar
                </CharString>
                <CharString name="m">
                    18 callgsubr
hstemhm
57 76 115 63 112 77 hintmask 11011100
202 432 rmoveto
33 13 -19 -50 hvcurveto
-363 63 394 vlineto
3 0 3 3 vvcurveto
19 21 22 10 22 hhcurveto
34 13 -19 -51 hvcurveto
-362 77 391 vlineto
74 -31 36 -55 -43 -37 -24 -28 -27 vhcurveto
33 -12 -26 19 -37 hhcurveto
-41 -37 -24 -31 -28 hvcurveto
hintmask 10111100
-4 46 -71 -5 rlineto
4 10 callsubr
76 hlineto
hintmask 11011100
172 -2 134 -2 89 vhcurveto
24 24 27 13 22 hhcurveto
endchar
                </CharString>
                <CharString name="macron">
                    604 70 hstem
108 334 vstem
442 674 -27 callsubr
endchar
                </CharString>
                <CharString name="minus">
                    259 68 hstem
78 394 vstem
472 327 rmoveto
-394 -68 393 hlineto
endchar
                </CharString>
                <CharString name="mu">
                    69 callsubr
-56 callsubr
7 callsubr
hintmask 0110000111000000
161 -164 rmoveto
-4 182 rlineto
-21 22 29 -9 36 hhcurveto
62 47 31 35 37 hvcurveto
hintmask 0101000111000000
5 -56 rlineto
hintmask 0100101011000000
74 -61 callsubr
hintmask 0110000111000000
-173 2 -128 2 -88 vhcurveto
-27 -38 -40 -17 -47 hhcurveto
-61 -36 31 87 hvcurveto
318 vlineto
hintmask 1010010011000000
-81 -6 rlineto
-659 vlineto
endchar
                </CharString>
                <CharString name="multiply">
                    490 91 callgsubr
77 396 hintmask 01100000
422 92 rmoveto
51 50 -149 151 rlineto
hintmask 10100000
145 147 -49 50 -144 -147 rlineto
hintmask 01100000
-147 149 -52 -50 148 -150 -144 -147 49 -49 144 146 rlineto
endchar
                </CharString>
                <CharString name="n">
                    15 callgsubr
291 432 -67 callgsubr
                </CharString>
                <CharString name="nacute">
                    15 callgsubr
171 606 -107 callgsubr
120 -174 -67 callgsubr
                </CharString>
                <CharString name="naira">
                    0 135 34 55 164 55 33 144 hstem
96 66.5 235 52 callgsubr
vstem
162 476 rmoveto
5 hlineto
118 -252 rlineto
-122 hlineto
230 -89 rmoveto
-117 253 rlineto
121 hlineto
1 -253 rlineto
-8 -135 rmoveto
72 169 68 65 -68 143 68 66 -68 177 -66 hlineto
1 -177 rlineto
-147 hlineto
-82 177 rlineto
-72 -177 -69 -66 69 -143 -69 -65 69 -169 67 169 148 hlineto
endchar
                </CharString>
                <CharString name="ncaron">
                    15 callgsubr
284 567 -93 callsubr
11 -135 -67 callgsubr
                </CharString>
                <CharString name="ncommaaccent">
                    18 callgsubr
hstemhm
88 81 87 82 52 27 callsubr
-70 -53 -31 -34 -41 vhcurveto
hintmask 10111100
-34 callgsubr
hintmask 11011100
-24 callgsubr
-59 -696 -100 callsubr
                </CharString>
                <CharString name="nine">
                    -1 -21 265 59 263 66 hstem
67 76 262 76 vstem
174 -22 rmoveto
211 100 96 139 173 vvcurveto
158 -84 83 -121 -111 -98 -81 -130 -176 190 -58 141 121 vhcurveto
-21 -106 -72 -83 -165 -70 rrcurveto
3 382 rmoveto
84 56 51 69 79 58 -59 -125 vhcurveto
-7 0 -7 -7 vvcurveto
-126 -100 -136 34 136 vvcurveto
endchar
                </CharString>
                <CharString name="nine.den">
                    80 callsubr
114 45 21 -21 153 53 hstemhm
120 61 185 63 hintmask 11011100
197 -227 -38 callsubr
vhcurveto
hintmask 10111100
-35 callsubr
hintmask 11011100
-51 callsubr
                </CharString>
                <CharString name="nine.inf">
                    -146 -21 169 -5 callgsubr
-167 -84 callsubr
                </CharString>
                <CharString name="nine.num">
                    577 -5 callgsubr
408 -84 callsubr
                </CharString>
                <CharString name="nine.small">
                    4 -21 169 -5 callgsubr
-17 -84 callsubr
                </CharString>
                <CharString name="nine.sup">
                    477 -5 callgsubr
308 -84 callsubr
                </CharString>
                <CharString name="notequal">
                    28 -21 144 84 callsubr
471 151 rmoveto
1 69 rlineto
-191 hlineto
57 153 rlineto
133 hlineto
1 69 rlineto
-109 hlineto
46 124 -62 19 -52 -143 rlineto
-217 -69 191 hlineto
-56 -153 rlineto
-135 -69 110 hlineto
-46 -125 61 -19 53 144 rlineto
endchar
                </CharString>
                <CharString name="ntilde">
                    18 callgsubr
107 92 callgsubr
hstemhm
88 81 221 81 hintmask 11011110
352 579 -89 callgsubr
-61 -147 -40 callgsubr
hintmask 10111110
-34 callgsubr
hintmask 11011110
-24 callgsubr
endchar
                </CharString>
                <CharString name="numbersign">
                    21 -21 174 69 136 69 172 -20 hstem
154 59 123 59 vstem
329 243 rmoveto
-123 hlineto
14 -17 callsubr
123 hlineto
-38 -379 rmoveto
59 hlineto
17 174 rlineto
100 hlineto
7 69 rlineto
-100 hlineto
14 -17 callsubr
99 hlineto
8 69 rlineto
-100 72 callgsubr
-123 72 callgsubr
-99 hlineto
-7 -69 rlineto
99 hlineto
-14 -136 rlineto
-98 hlineto
-7 -69 rlineto
98 hlineto
-17 -174 rlineto
59 hlineto
17 174 rlineto
123 hlineto
endchar
                </CharString>
                <CharString name="numero">
                    -1 171 -59 59 50 61 282 62 -5 -20 hstemhm
39 52 callgsubr
109 52 callgsubr
34 63 -56 202 -55 63 hintmask 0111011101000000
411 220 rmoveto
67 50 77 135 130 -40 63 -61 -66 -50 -78 -134 -131 41 -62 59 hvcurveto
hintmask 1010111101000000
-197 -220 rmoveto
63 -1 rlineto
620 vlineto
-67 1 5 -412 rlineto
-2 hlineto
-107 412 rlineto
-67 -620 67 hlineto
-5 442 rlineto
3 hlineto
318 -161 rmoveto
-28 -20 51 94 hvcurveto
hintmask 0111011101000000
87 17 50 26 27 21 -51 -93 vhcurveto
hintmask 1010111101000000
-88 -17 -50 -26 vhcurveto
hintmask 0111011010000000
98 -170 rmoveto
59 -202 -59 vlineto
endchar
                </CharString>
                <CharString name="o">
                    10 callgsubr
264 -14 -105 callgsubr
                </CharString>
                <CharString name="oacute">
                    10 callgsubr
170 599 -107 callgsubr
94 -613 -105 callgsubr
                </CharString>
                <CharString name="obreve">
                    27 callgsubr
67 66 -1 callgsubr
274 570 -104 callsubr
-10 -584 -105 callgsubr
                </CharString>
                <CharString name="ocircumflex">
                    10 callgsubr
402 565 -101 callsubr
-5 -693 -105 callgsubr
                </CharString>
                <CharString name="odieresis">
                    27 callgsubr
71 44 callgsubr
55 82 -11.5 -76 callgsubr
-14 81 hintmask 11101100
427 574 18 callsubr
139 -588 -105 callgsubr
                </CharString>
                <CharString name="oe">
                    -7 66 -65 67 167.5 50 151.5 66 hstemhm
32 80 141 68 123 70 hintmask 01111110
384 431 rmoveto
46 14 -54 -96 hvcurveto
-123 -5 rlineto
108 3 24 47 36 hhcurveto
hintmask 10111110
-197 -372 rmoveto
-51 -24 61 132 125 27 53 41 44 29 -67 -124 -121 -24 -59 -42 hvcurveto
hintmask 01111110
313 -65 rmoveto
8 67 -149 4 -34 44 -4 117 rlinecurve
193 5 rlineto
168 11 -36 97 -91 hhcurveto
-46 -38 -29 -51 -24 hvcurveto
53 -22 -35 27 -46 hhcurveto
-94 -61 -96 -167 hvcurveto
hintmask 10111110
-162 54 -78 85 52 40 34 60 24 vhcurveto
hintmask 01111110
32 -60 63 -32 118 -1 rrcurveto
endchar
                </CharString>
                <CharString name="ogonek">
                    -216 66 171 -21 hstem
171 75 vstem
355 34 rmoveto
-135 -63 -49 -47 -46 59 callsubr
7 66 rlineto
67 callgsubr
endchar
                </CharString>
                <CharString name="ograve">
                    27 callgsubr
203 -20 -1 callgsubr
376 593 -94 callgsubr
-88 -571 -105 callgsubr
                </CharString>
                <CharString name="ohungarumlaut">
                    10 callgsubr
127 591 -82 callgsubr
-71 -603 -105 callgsubr
                </CharString>
                <CharString name="omacron">
                    27 callgsubr
106 70 -1 callgsubr
442 679 -27 callsubr
-178 -623 -105 callgsubr
                </CharString>
                <CharString name="one">
                    0 69 421 152 -7 38 callgsubr
261 79 hintmask 10011000
486 hmoveto
7 69 rlineto
-153 573 hlineto
hintmask 10101000
-79 -7 rlineto
hintmask 11001000
-71 vlineto
-159 -19 1 -59 158 8 rlineto
-425 -171 -69 vlineto
endchar
                </CharString>
                <CharString name="one.den">
                    -210 -30 callgsubr
-210 -99 callsubr
endchar
                </CharString>
                <CharString name="one.inf">
                    -150 -30 callgsubr
-150 -99 callsubr
endchar
                </CharString>
                <CharString name="one.num">
                    425 55 230.5 123 hstem
260 64 vstem
-81 callgsubr
endchar
                </CharString>
                <CharString name="one.small">
                    0 -30 callgsubr
hmoveto
-100 callgsubr
endchar
                </CharString>
                <CharString name="one.sup">
                    325 -30 callgsubr
325 -99 callsubr
endchar
                </CharString>
                <CharString name="oneeighth">
                    2 callgsubr
93 55 230.5 123 6 callgsubr
64 64 34 62 -59 67 hintmask 1011111101010000
-93 callgsubr
206 -552 rmoveto
-41 callsubr
hintmask 1011111011100000
-58 callgsubr
vhcurveto
hintmask 1101111011010000
5 callsubr
hintmask 1011111101010000
-21 callsubr
hintmask 1011111011100000
-87 callsubr
hintmask 1011111101010000
-91 callsubr
                </CharString>
                <CharString name="onefifth">
                    13 callsubr
93 55 230.5 123 hstem
-34 callsubr
48 64 36 62 vstem
-93 callgsubr
-80 callgsubr
                </CharString>
                <CharString name="onehalf">
                    -210 54 callgsubr
83 39 callsubr
260 64 23 66 hintmask 11111100
-93 callgsubr
365 -542 rmoveto
57 -213 vlineto
hintmask 11111110
-96 callsubr
endchar
                </CharString>
                <CharString name="onequarter">
                    -129.5 54 352.5 39 callsubr
130 56 74 64 9 34 callgsubr
hintmask 11110100
-93 callgsubr
hintmask 11111110
384 -462 -89 callsubr
                </CharString>
                <CharString name="onesixth">
                    -219 53 152 46 245 78 callsubr
hstem
121 62 77 64 44 62 vstem
-93 callgsubr
214 -551 -102 callsubr
                </CharString>
                <CharString name="onethird">
                    -221 60 290 56 92 39 callsubr
260 64 13 76 -52 64 hintmask 11111101
-93 callgsubr
80 -553 rmoveto
-65 callgsubr
hintmask 11111110
-92 callsubr
hintmask 11111101
-66 callsubr
endchar
                </CharString>
                <CharString name="ordfeminine">
                    117 55 73 53 124 45 98 61 hstem
112 68 177 67 vstem
253 298 rmoveto
-44 -29 16 40 49 44 29 133 -13 hvcurveto
-35 1 -27 1 -23 vhcurveto
-20 -30 -39 -16 -37 hhcurveto
115 -45 rmoveto
61 4 rlineto
-2 51 -3 51 79 vvcurveto
138 -61 43 -217 7 vhcurveto
-6 -61 159 -5 50 -18 7 -75 rlinecurve
-165 8 -79 -57 -77 vvcurveto
-60 51 -36 70 55 44 23 26 30 vhcurveto
2 -15 3 -19 1 -7 rrcurveto
-259 -81 rmoveto
-55 331 55 vlineto
endchar
                </CharString>
                <CharString name="ordmasculine">
                    117 55 73 56 271 55 hstem
97 68 220 68 vstem
97 430 rmoveto
-117 71 -68 97 104 84 79 119 116 -71 68 -98 -102 -85 -79 -118 vhcurveto
179 -129 rmoveto
-68 -43 47 93 85 41 46 67 69 43 -47 -93 -85 -42 -46 -67 hvcurveto
166 -184 rmoveto
55 -333 -55 vlineto
endchar
                </CharString>
                <CharString name="oslash">
                    48 callsubr
136 251 -68 callsubr
                </CharString>
                <CharString name="oslashacute">
                    48 callsubr
170 599 -107 callgsubr
-34 -348 -68 callsubr
                </CharString>
                <CharString name="otilde">
                    27 callgsubr
69 92 callgsubr
-1 callgsubr
352 572 -89 callgsubr
-88 -586 -105 callgsubr
                </CharString>
                <CharString name="p">
                    80 callsubr
28 -21 153 70 -45 -21 442 67 85 callsubr
92 81 241 80 hintmask 01101011
255 58 rmoveto
-27 -26 5 10 -29 hvcurveto
-1 144 -2 95 -2 81 rrcurveto
25 33 40 16 83 callsubr
-70 -66 -89 hvcurveto
-82 -223 rmoveto
hintmask 01011011
157 vlineto
hintmask 01101011
-3 18 18 -1 17 hhcurveto
145 123 103 176 143 -78 91 -104 -61 -49 -27 -33 -37 hvcurveto
hintmask 10100111
-5 51 -74 -5 rlineto
5 -104 1 -148 -237 vvcurveto
-170 vlineto
endchar
                </CharString>
                <CharString name="paragraph">
                    101 66 386 77 hstemhm
48 75 122 69 -58 57 88 69 hintmask 11101100
401 167 rmoveto
-32 1 -29 3 -27 6 rrcurveto
373 vlineto
26 3 30 2 32 -2 rrcurveto
-278 -191 rmoveto
78 42 67 91 30 vhcurveto
-344 vlineto
-85 32 -48 61 76 vvcurveto
hintmask 11110100
191 -469 rmoveto
213 vlineto
-3 27 29 -2 31 hhcurveto
-191 vlineto
69 8 rlineto
712 vlineto
-271 2 -151 -118 -165 vvcurveto
-109 72 -82 125 -37 vhcurveto
-237 vlineto
endchar
                </CharString>
                <CharString name="parenleft">
                    -206 83 callgsubr
725 -19 callgsubr
                </CharString>
                <CharString name="parenleft.cap">
                    -159 83 callgsubr
772 -19 callgsubr
                </CharString>
                <CharString name="parenright">
                    -206 82 callgsubr
-206 -18 callgsubr
                </CharString>
                <CharString name="parenright.cap">
                    -160 82 callgsubr
-160 -18 callgsubr
                </CharString>
                <CharString name="percent">
                    6 44 callsubr
643 57 callsubr
hstemhm
50 181 89 182 hintmask 01011100
50 498 rmoveto
-79 35 -46 51 53 42 52 83 79 -35 47 -51 -54 -41 -52 -84 vhcurveto
hintmask 10101100
63 -513 rmoveto
378 614 -54 32 -378 -613 rlineto
hintmask 01011100
443 105 rmoveto
79 -36 47 -51 -53 -42 -51 -84 -80 36 -46 51 54 41 52 83 vhcurveto
endchar
                </CharString>
                <CharString name="period">
                    0 116 hstem
213 119 vstem
329 hmoveto
6 61 callgsubr
-6 -116 rlineto
endchar
                </CharString>
                <CharString name="periodcentered">
                    248 115 hstem
216.5 119 vstem
334 248 rmoveto
3 115 63 callgsubr
-3 -115 rlineto
endchar
                </CharString>
                <CharString name="peso">
                    21 -21 182 72 114 67 -61 59 129 68 -11 -20 hstemhm
101 76 hintmask 11011010
177 433 rmoveto
125 vlineto
131 19 74 -51 12 -93 rrcurveto
-217 -179 rmoveto
120 217 vlineto
-14 -94 -77 -34 -126 8 rrcurveto
hintmask 11100110
357 114 rmoveto
67 -63 vlineto
-8 146 -127 79 -235 -41 rrcurveto
-184 -75 -67 75 -368 76 182 vlineto
155 11 110 58 24 117 rrcurveto
endchar
                </CharString>
                <CharString name="plus">
                    259 68 hstem
239 73 vstem
488 259 rmoveto
1 68 rlineto
-177 187 -73 -187 -178 -68 178 -187 73 187 hlineto
endchar
                </CharString>
                <CharString name="plusminus">
                    62 68 167 69 hstem
239 73 vstem
479 62 rmoveto
1 68 rlineto
-168 167 169 hlineto
1 69 rlineto
-170 179 -73 -179 -171 -69 171 -167 -169 -68 hlineto
endchar
                </CharString>
                <CharString name="published">
                    7 45 516 45 hstem
42 48 110 54 206 86 callgsubr
90 -111 134 14 callsubr
73 101 107 79 callgsubr
-103 -74 95 159 vhcurveto
164 -163 rmoveto
91 vlineto
72 10 52 46 69 vvcurveto
86 -59 38 -119 -17 vhcurveto
-323 vlineto
endchar
                </CharString>
                <CharString name="q">
                    -150 -21 28 -21 151 68 377 69 hstemhm
56 80 243 81 hintmask 10111100
379 -171 rmoveto
hintmask 01111100
81 7 rlineto
640 vlineto
17 -44 -41 8 -50 hhcurveto
-140 -129 -104 -177 -144 77 -89 107 57 47 26 31 35 hvcurveto
-109 11 rmoveto
-78 -56 62 123 125 69 67 90 28 26 -5 -11 30 hvcurveto
-319 vlineto
-24 -31 -38 -18 -40 hhcurveto
endchar
                </CharString>
                <CharString name="question">
                    0 109 493 76 hstem
176 110.5 110.5 86 vstem
85 602 rmoveto
252 -16 60 -40 -47 vvcurveto
-72 -180 -55 -8 -143 vhcurveto
57 -1 rlineto
14 129 203 51 110 vvcurveto
79 -88 65 -302 16 vhcurveto
192 -678 rmoveto
3 109 rlineto
-111 hlineto
-2 -109 rlineto
endchar
                </CharString>
                <CharString name="questiondown">
                    -58 76 493 109 hstem
67 86 111 109.5 vstem
266 620 rmoveto
-4 -109 rlineto
110 hlineto
3 109 rlineto
90 -602 rmoveto
-251 16 -61 40 47 vvcurveto
72 180 55 9 143 vhcurveto
-57 1 rlineto
-14 -129 -204 -51 -110 vvcurveto
-79 88 -65 302 -16 vhcurveto
endchar
                </CharString>
                <CharString name="quotedbl">
                    374 295 hstem
130.5 97 120.5 96.5 vstem
404 374 rmoveto
42 257 -3 38 rlineto
-97 hlineto
4 -295 rlineto
-162 hmoveto
41 257 -3 38 rlineto
-98 hlineto
5 -295 rlineto
endchar
                </CharString>
                <CharString name="quotedblbase">
                    80 callsubr
hstem
149 89 125 90 vstem
101 -172 rmoveto
40 -14 85 84 32 113 -32 111 rlinecurve
-110 -6 48 -109 -3 -100 -60 -79 rlinecurve
211 hmoveto
40 -13 87 82 33 112 -30 113 rlinecurve
-110 -6 46 -108 -3 -101 -63 -79 rlinecurve
endchar
                </CharString>
                <CharString name="quotedblleft">
                    380 310 hstem
107 89 125 88 vstem
457 676 rmoveto
-40 14 -85 -85 -32 -112 34 -113 rlinecurve
108 8 -48 109 3 100 60 79 rlinecurve
-211 hmoveto
-40 14 -86 -84 -33 -112 32 -114 rlinecurve
107 8 -45 108 4 101 61 79 rlinecurve
endchar
                </CharString>
                <CharString name="quotedblright">
                    360 309 hstem
152 89 125 89 vstem
104 373 rmoveto
41 -13 84 84 32 113 -33 112 rlinecurve
-108 -7 47 -109 -3 -101 -60 -79 rlinecurve
212 1 rmoveto
40 -14 86 83 33 113 -31 113 rlinecurve
-108 -7 46 -108 -5 -101 -61 -79 rlinecurve
endchar
                </CharString>
                <CharString name="quoteleft">
                    380 310 hstem
211 92 vstem
357 676 rmoveto
-43 14 -86 -83 -41 -112 39 -115 rlinecurve
109 8 -50 110 8 100 64 78 rlinecurve
endchar
                </CharString>
                <CharString name="quoteright">
                    360 310 hstem
260 92 vstem
207 374 rmoveto
43 -14 86 82 40 113 -38 115 rlinecurve
-110 -8 50 -111 -8 -99 -63 -78 rlinecurve
endchar
                </CharString>
                <CharString name="quotesinglbase">
                    80 callsubr
hstem
256 92 vstem
201 -172 rmoveto
43 -13 86 83 42 112 -38 112 rlinecurve
-111 -6 50 -108 -6 -101 -66 -79 rlinecurve
endchar
                </CharString>
                <CharString name="quotesingle">
                    365 304 hstem
242 105 vstem
300 365 rmoveto
49 265 -4 39 rlineto
-105 hlineto
4 -304 rlineto
endchar
                </CharString>
                <CharString name="r">
                    3 callgsubr
-42 callsubr
endchar
                </CharString>
                <CharString name="racute">
                    3 callgsubr
hintmask 11010000
193 602 -107 callgsubr
242 -602 rmoveto
-38 callgsubr
endchar
                </CharString>
                <CharString name="rcaron">
                    -4 callgsubr
154 -20 84 -20 hstemhm
197 79 hintmask 11011100
306 563 -93 callsubr
133 -563 rmoveto
-4 callsubr
hintmask 10111100
-15 callgsubr
hintmask 11011100
-49 callsubr
endchar
                </CharString>
                <CharString name="rcommaaccent">
                    3 callgsubr
-53 82 -42 callsubr
hintmask 11001000
132 -58 callsubr
                </CharString>
                <CharString name="registered">
                    195 41 166.5 148.5 82 41 hstem
37 45 113 47 227 45 vstem
514 441 rmoveto
145 -101 90 -136 -2 vhcurveto
-142 -2 -98 -98 -146 vvcurveto
-144 93 -89 143 136 105 101 145 vhcurveto
-45 -4 rmoveto
-127 -85 -74 -111 -111 -80 71 125 124 81 77 113 113 80 -70 -126 vhcurveto
-133 -117 rmoveto
50 7 -59 88 rlineto
25 17 21 26 26 vvcurveto
45 -51 35 -127 -17 vhcurveto
-225 47 80 vlineto
44 1 rlineto
endchar
                </CharString>
                <CharString name="registered.alt">
                    7 45 205 215 96 45 hstem
42 48 102 54 214 86 callgsubr
91 -111 133 14 callsubr
74 101 106 79 callgsubr
-102 -75 95 159 vhcurveto
234 -166 rmoveto
57 7 -54 134 rlineto
23 25 17 35 37 vvcurveto
63 -43 49 -132 -23 vhcurveto
-322 54 111 vlineto
37 2 rlineto
endchar
                </CharString>
                <CharString name="ring">
                    548 212 hstem
152 263 vstem
283 760 -59 callsubr
endchar
                </CharString>
                <CharString name="ruble">
                    0 179 -59 59 89 61 231 68 85 callsubr
127 79 218 79 hintmask 01110110
424 449 rmoveto
-91 -68 -26 -150 -2 vhcurveto
227 vlineto
141 14 77 -38 -84 vvcurveto
-9 -329 rmoveto
7 59 rlineto
-216 91 hlineto
190 9 107 54 125 vvcurveto
hintmask 01101110
137 -133 56 -243 -32 vhcurveto
-290 -84 -61 84 -86 -84 -62 84 vlineto
hintmask 10110110
-120 79 vlineto
hintmask 01110110
120 vlineto
endchar
                </CharString>
                <CharString name="rupee">
                    -6 67 -44 -21 25 -21 27 -21 228 57 205 -20 84 68 85 callsubr
69 70 88 70 38 68 51 70 hintmask 0100111011110000
247 -4 rmoveto
hintmask 0001110111110000
68 10 -75 268 rlineto
33 41 24 57 81 vvcurveto
126 -56 76 -172 -36 vhcurveto
hintmask 0010111011110000
-619 70 233 vlineto
44 2 rlineto
-44 322 rmoveto
62 14 26 -41 -91 vvcurveto
-64 -14 -49 -21 -34 vhcurveto
-53 -2 rlineto
373 206 rmoveto
-128 12 -49 -72 -67 vvcurveto
hintmask 1000111011110000
-110 119 -50 -84 vvcurveto
-40 -26 -33 -91 9 vhcurveto
2 -67 rlineto
140 -11 45 75 70 111 -121 54 78 vvcurveto
38 22 30 89 -10 vhcurveto
endchar
                </CharString>
                <CharString name="rupeeindia">
                    6 -21 380 58 128 69 hstem
79 411 vstem
479 29 rmoveto
-136 106 -74 54 -81 26 115 24 71 57 17 69 rrcurveto
93 58 -91 hlineto
-9 55 -38 46 -64 27 rrcurveto
203 hlineto
5 69 rlineto
-403 hlineto
-5 -67 152 -16 67 -51 14 -63 rlinecurve
-231 -58 231 hlineto
-15 -63 -64 -45 -143 -11 -14 -60 rcurveline
127 -36 57 -43 152 -122 rrcurveto
endchar
                </CharString>
                <CharString name="s">
                    47 callgsubr
192 84 hintmask 11011000
437 494 rmoveto
hintmask 10111000
-71 callsubr
endchar
                </CharString>
                <CharString name="sacute">
                    47 callgsubr
192 84 hintmask 10111000
173 595 -107 callgsubr
hintmask 11011000
264 -101 rmoveto
hintmask 10111000
-71 callsubr
endchar
                </CharString>
                <CharString name="scaron">
                    -4 68 362 68 -68 71 138 61 callsubr
103 82 192 84 hintmask 10110111
286 556 -72 callgsubr
rlineto
hintmask 10111011
-33 callgsubr
rlineto
hintmask 10110111
-14 callgsubr
hintmask 11010111
155 -62 rmoveto
hintmask 10110111
-71 callsubr
endchar
                </CharString>
                <CharString name="scedilla">
                    -5 69 -65 -21 448 68 -68 71 hstemhm
103 82 114 72 6 84 hintmask 10011010
188 -224 rmoveto
hintmask 01011100
37 callgsubr
36 -31 41 -75 43 vhcurveto
hintmask 10011010
145 18 51 59 61 -24 callsubr
hintmask 10101010
-3 72 rlineto
hintmask 10011010
-51 callgsubr
hintmask 10011100
43 -2 38 0 34 1 rrcurveto
hintmask 01011100
-9 -17 rlineto
-12 callsubr
endchar
                </CharString>
                <CharString name="schwa">
                    -12 67 153 53.5 170.5 69 hstem
67 78 259 81 vstem
253 -12 rmoveto
127 105 115 149 159 -84 89 -306 1 hvcurveto
-9 -69 236 -6 74 -45 8 -115 rlinecurve
-334 -9 rlineto
-161 -18 67 -108 134 hhcurveto
15 67 rmoveto
-82 -40 59 94 -1 hvcurveto
69 2 133 4 57 2 rrcurveto
-105 -6 -50 -56 -80 hhcurveto
endchar
                </CharString>
                <CharString name="scommaaccent">
                    47 callgsubr
48 82 62 84 hintmask 11011100
437 494 rmoveto
hintmask 10111100
-71 callsubr
-231 -696 -100 callsubr
                </CharString>
                <CharString name="section">
                    -109 70 596 71 hstemhm
63 73 -31 83 174 83 -31 73 hintmask 11100100
136 275 rmoveto
31 40 29 53 20 vhcurveto
86 -36 99 -26 -49 vvcurveto
-31 -40 -30 -52 -19 vhcurveto
-86 36 -100 26 49 vvcurveto
hintmask 11101000
309 -229 rmoveto
40 -30 29 -42 24 vhcurveto
hintmask 11010100
64 28 50 43 53 123 -299 17 77 vvcurveto
39 55 48 211 -10 vhcurveto
-4 71 rlineto
-254 9 -91 -90 -75 vvcurveto
-40 30 -29 41 -23 vhcurveto
hintmask 11101000
-64 -28 -49 -43 -52 -123 299 -19 -77 vvcurveto
-39 -57 -47 -210 9 vhcurveto
-4 -70 rlineto
262 -9 92 90 74 vvcurveto
endchar
                </CharString>
                <CharString name="semicolon">
                    80 callsubr
501 117 hstemhm
221.5 119 -90.5 93 hintmask 11100000
340 329 rmoveto
1 77 callgsubr
hintmask 11010000
-26 -501 rmoveto
42 -13 87 81 43 111 -38 115 rlinecurve
-113 -7 52 -110 -7 -99 -66 -78 rlinecurve
endchar
                </CharString>
                <CharString name="servicemark">
                    289 49 7 75 124 76 -45 49 hstemhm
36 52 69 53 49 65 callsubr
hintmask 01101111
366 345 -7 callgsubr
hintmask 10011111
-274 -206 rmoveto
-49 vlineto
124 -2 49 49 48 75 -122 29 49 vvcurveto
24 26 17 80 -3 vhcurveto
-3 49 rlineto
-112 4 -43 -52 -44 -74 121 -28 -49 vvcurveto
-25 -31 -22 -89 4 vhcurveto
endchar
                </CharString>
                <CharString name="seven">
                    16 -21 30 -21 543 73 hstemhm
81 406 hintmask 10110000
232 -5 rmoveto
63 187 86 189 106 180 rrcurveto
69 -400 vlineto
-6 -73 rlineto
323 hlineto
3 -4 rlineto
hintmask 01110000
-108 -175 -87 -182 -63 -182 rrcurveto
endchar
                </CharString>
                <CharString name="seven.den">
                    127 8 callsubr
-217 -63 callsubr
                </CharString>
                <CharString name="seven.inf">
                    187 8 callsubr
-157 -63 callsubr
                </CharString>
                <CharString name="seven.num">
                    762 8 callsubr
418 -63 callsubr
                </CharString>
                <CharString name="seven.small">
                    14 -21 29 -21 336 24 callgsubr
hintmask 10110000
248 -7 rmoveto
hintmask 01101000
-78 callgsubr
endchar
                </CharString>
                <CharString name="seven.sup">
                    662 8 callsubr
318 -63 callsubr
                </CharString>
                <CharString name="seveneighths">
                    2 callgsubr
430 58 -20 callgsubr
-64 68 hintmask 1011111001000000
248 418 rmoveto
hintmask 1011111000100000
-78 callgsubr
-119 -149 -46 callsubr
206 -552 rmoveto
hintmask 1011111001000000
-41 callsubr
hintmask 1011110110000000
-58 callgsubr
vhcurveto
hintmask 1101110101000000
5 callsubr
hintmask 1011111001000000
6 callsubr
hintmask 1011111000100000
26 callgsubr
hintmask 1011110110000000
-87 callsubr
hintmask 1011111001000000
-91 callsubr
                </CharString>
                <CharString name="six">
                    -11 66 263 59 265 -20 hstem
69 77 262 76 vstem
275 -11 rmoveto
112 97 81 130 176 -191 58 -140 -121 hvcurveto
21 106 72 84 163 69 -33 70 rcurveline
-211 -100 -96 -139 -173 vvcurveto
-157 84 -84 122 vhcurveto
7 66 rmoveto
-78 -58 59 125 hvcurveto
7 0 7 7 vvcurveto
126 100 136 -34 -135 vvcurveto
-85 -56 -51 -70 vhcurveto
endchar
                </CharString>
                <CharString name="six.den">
                    -219 -5 callsubr
-219 -102 callsubr
                </CharString>
                <CharString name="six.inf">
                    -159 -5 callsubr
-159 -102 callsubr
                </CharString>
                <CharString name="six.num">
                    416 53 152 -20 20 46 hstemhm
121 62 185 62 hintmask 10111000
275 416 rmoveto
84 71 55 82 hvcurveto
hintmask 11011000
118 -145 32 -99 -82 vhcurveto
-59 callgsubr
hintmask 10111000
-79 callsubr
                </CharString>
                <CharString name="six.small">
                    -9 -5 callsubr
-9 -102 callsubr
                </CharString>
                <CharString name="six.sup">
                    316 -5 callsubr
316 -102 callsubr
                </CharString>
                <CharString name="slash">
                    -189 915 hstem
10 534 vstem
475 726 rmoveto
-465 -886 71 -29 463 883 rlineto
endchar
                </CharString>
                <CharString name="space">
                    endchar
                </CharString>
                <CharString name="sterling">
                    0 69 206 63 216 82 hstem
61 420 vstem
475 70 rmoveto
-264 -2 23 207 rlineto
179 hlineto
6 63 rlineto
-178 hlineto
19 176 27 31 194 9 -5 82 rcurveline
-238 -17 -54 -77 -23 -204 rrcurveto
-88 hlineto
-6 -63 rlineto
87 hlineto
-20 -207 -73 -1 rlineto
-67 414 vlineto
endchar
                </CharString>
                <CharString name="t">
                    20 callsubr
-28 callsubr
endchar
                </CharString>
                <CharString name="tcaron">
                    20 callsubr
124 78 hintmask 11011100
355 593 -42 callgsubr
105 -601 -8 callsubr
hintmask 11101100
21 callgsubr
hintmask 11011100
60 callgsubr
endchar
                </CharString>
                <CharString name="tcommaaccent">
                    20 callsubr
18 82 -28 callsubr
hintmask 11011100
-208 -58 callsubr
                </CharString>
                <CharString name="thorn">
                    69 callsubr
70 -44 -21 441 67 198 38 callgsubr
91 80 243 80 hintmask 0110101110000000
254 58 rmoveto
-28 -25 4 11 -30 hvcurveto
323 vlineto
23 32 38 15 83 callsubr
-71 -66 -89 hvcurveto
-83 -222 rmoveto
hintmask 0101101110000000
157 vlineto
hintmask 0110101110000000
-3 19 20 -2 19 hhcurveto
141 124 104 175 143 -79 91 -104 -57 -47 -24 -31 -36 hvcurveto
260 vlineto
hintmask 1010110110000000
-80 -7 rlineto
-871 vlineto
endchar
                </CharString>
                <CharString name="three">
                    -12 75 486 71 hstem
397 78 vstem
95 -12 rmoveto
270 13 110 77 104 vvcurveto
72 -63 64 -182 30 vhcurveto
232 202 -5 70 rlineto
-360 -71 282 hlineto
-240 -208 rlineto
-39 vlineto
193 -22 65 -50 -54 vvcurveto
-61 -78 -40 -229 -12 vhcurveto
endchar
                </CharString>
                <CharString name="three.den">
                    -221 -6 callsubr
-221 -85 callgsubr
                </CharString>
                <CharString name="three.inf">
                    -161 -6 callsubr
-161 -85 callgsubr
                </CharString>
                <CharString name="three.num">
                    414 88 callgsubr
337 76 -52 64 hintmask 11101000
141 414 rmoveto
-65 callgsubr
hintmask 11110000
-92 callsubr
hintmask 11101000
-66 callsubr
endchar
                </CharString>
                <CharString name="three.small">
                    -11 -6 callsubr
-11 -85 callgsubr
                </CharString>
                <CharString name="three.sup">
                    314 -6 callsubr
314 -85 callgsubr
                </CharString>
                <CharString name="threeeighths">
                    2 callgsubr
82 88 callgsubr
123 64 -57 66 141 76 -55 62 -59 64 -64 67 hintmask 1011111110001000
141 414 rmoveto
-65 callgsubr
hintmask 1011111110100000
-92 callsubr
hintmask 1011111110001000
-18 callsubr
206 -552 rmoveto
hintmask 1011111110000100
-41 callsubr
hintmask 1011111101010000
-58 callgsubr
vhcurveto
hintmask 1101111101001000
5 callsubr
hintmask 1011111110001000
-21 callsubr
hintmask 1011111101010000
-87 callsubr
hintmask 1011111110000100
-91 callsubr
                </CharString>
                <CharString name="threefifths">
                    13 callsubr
82 88 callgsubr
-34 callsubr
125 76 -53 62 -61 64 hintmask 0111111101000000
141 414 rmoveto
hintmask 0111111100100000
-65 callgsubr
hintmask 0111111110000000
-92 callsubr
hintmask 0111111100100000
-18 callsubr
hintmask 1111111101000000
-80 callgsubr
                </CharString>
                <CharString name="threequarters">
                    -129.5 54 352.5 55 82 88 callgsubr
-9 callgsubr
-56.5 76 -52 64 hintmask 1111101000000000
141 414 rmoveto
hintmask 1111100010000000
-65 callgsubr
hintmask 1111100100000000
-92 callsubr
hintmask 1111100010000000
-18 callsubr
hintmask 1111111000000000
384 -462 -89 callsubr
                </CharString>
                <CharString name="tilde">
                    567 92 callgsubr
-28 -20 hstemhm
75 402 hintmask 11010000
345 567 rmoveto
hintmask 10110000
-45 callgsubr
hhcurveto
hintmask 11010000
-74 callgsubr
endchar
                </CharString>
                <CharString name="trademark">
                    573 47 hstem
96 51 112 65 callsubr
vstem
147 573 rmoveto
69 47 -193 hlineto
-3 -47 rlineto
76 -281 51 hlineto
219 53 -7 callgsubr
endchar
                </CharString>
                <CharString name="two">
                    0 71 481 76 hstem
381 80 vstem
481 hmoveto
71 -309 vlineto
184 149 105 100 127 vvcurveto
103 -80 81 -280 -3 vhcurveto
-7 -76 rlineto
225 -1 62 -46 -77 vvcurveto
-102 -107 -99 -199 -161 vhcurveto
8 -66 rlineto
endchar
                </CharString>
                <CharString name="two.den">
                    -210 14 callgsubr
-210 -68 callgsubr
                </CharString>
                <CharString name="two.inf">
                    -150 14 callgsubr
-150 -68 callgsubr
                </CharString>
                <CharString name="two.num">
                    425 57 289 58 hstem
347 66 vstem
-14 callsubr
endchar
                </CharString>
                <CharString name="two.small">
                    0 14 callgsubr
hmoveto
-95 callsubr
endchar
                </CharString>
                <CharString name="two.sup">
                    325 14 callgsubr
325 -68 callgsubr
                </CharString>
                <CharString name="twofifths">
                    13 callsubr
93 54 callgsubr
hstemhm
-34 callsubr
135 66 -53 62 hintmask 0111111100000000
-29 callgsubr
hintmask 1111111010000000
-80 callgsubr
                </CharString>
                <CharString name="twothirds">
                    -221 60 290 56 92 55 93 54 callgsubr
hstemhm
337 76 -66 66 -52 64 hintmask 11111010
-29 callgsubr
80 -553 rmoveto
hintmask 11111001
-65 callgsubr
hintmask 11111100
-92 callsubr
hintmask 11111001
-66 callsubr
endchar
                </CharString>
                <CharString name="u">
                    -28 callgsubr
hintmask 01000111
394 -2 -87 callgsubr
                </CharString>
                <CharString name="uacute">
                    -28 callgsubr
hintmask 10000111
172 597 -107 callgsubr
hintmask 01000111
222 -599 -87 callgsubr
                </CharString>
                <CharString name="ubreve">
                    -53 callgsubr
95 66 30 callgsubr
277 568 -104 callsubr
hintmask 0100011110000000
117 -570 -90 callsubr
                </CharString>
                <CharString name="ucircumflex">
                    -28 callgsubr
hintmask 10000111
405 563 -101 callsubr
hintmask 01000111
122 -679 -87 callgsubr
                </CharString>
                <CharString name="udieresis">
                    -53 callgsubr
99 44 callgsubr
82 81 -35.5 -76 callgsubr
-49 81 hintmask 1000011011000000
429 572 -95 callgsubr
hintmask 0100011100100000
267 -574 rmoveto
hintmask 0010101100100000
75 -61 callsubr
hintmask 1000011100100000
-83 callgsubr
hintmask 1001001100100000
-73 callgsubr
                </CharString>
                <CharString name="ugrave">
                    -53 callgsubr
231 -20 30 callgsubr
378 591 -94 callgsubr
hintmask 0100011110000000
40 -557 -90 callsubr
                </CharString>
                <CharString name="uhungarumlaut">
                    -28 callgsubr
hintmask 10000111
129 589 -82 callgsubr
hintmask 01000111
57 -589 -87 callgsubr
                </CharString>
                <CharString name="umacron">
                    -53 callgsubr
134 70 30 callgsubr
444 677 -27 callsubr
hintmask 0100011110000000
-50 -609 -90 callsubr
                </CharString>
                <CharString name="underscore">
                    -116 66 hstem
33 483 vstem
516 -50 rmoveto
-483 -66 483 hlineto
endchar
                </CharString>
                <CharString name="underscore.alt">
                    -116 66 hstem
-10 570 vstem
560 -50 rmoveto
-570 -66 570 hlineto
endchar
                </CharString>
                <CharString name="uni00A0">
                    endchar
                </CharString>
                <CharString name="uogonek">
                    -213 65 136 69 -48 -21 36 -37 callsubr
hstemhm
82 81 99 76 43 81 hintmask 1100001111000000
447 -213 rmoveto
8 65 rlineto
-85 9 80 callgsubr
hintmask 1001010111000000
23 29 31 102 48 vhcurveto
-54 callgsubr
hintmask 1100001111000000
-157 2 -120 2 -86 vhcurveto
-42 -39 -41 -28 -48 hhcurveto
-59 -35 32 96 hvcurveto
308 vlineto
hintmask 1100100111000000
-32 callsubr
55 -49 86 67 57 43 47 41 vhcurveto
hintmask 1010001111000000
5 -69 rlineto
-95 -49 -36 -40 -40 vvcurveto
hintmask 1100001111000000
-48 50 -35 135 -10 vhcurveto
endchar
                </CharString>
                <CharString name="uring">
                    -53 callgsubr
78 212 30 callgsubr
276 763 -59 callsubr
hintmask 0100011110000000
118 -765 -90 callsubr
                </CharString>
                <CharString name="v">
                    -4 80 414 91 callgsubr
44 465 hintmask 10110000
281 76 rmoveto
-8 hlineto
-54 139 -49 140 -45 137 -81 -5 rcurveline
54 -163 60 -164 66 -164 rrcurveto
102 hlineto
hintmask 11010000
66 163 63 167 54 164 rrcurveto
-82 hlineto
hintmask 10110000
-44 -137 -48 -139 -54 -138 rrcurveto
endchar
                </CharString>
                <CharString name="w">
                    15 callsubr
368 hmoveto
-79 callgsubr
                </CharString>
                <CharString name="wacute">
                    15 callsubr
170 -61 callgsubr
198 -594 rmoveto
-79 callgsubr
                </CharString>
                <CharString name="wcircumflex">
                    15 callsubr
403 560 -101 callsubr
98 -674 rmoveto
-79 callgsubr
                </CharString>
                <CharString name="wdieresis">
                    37 callsubr
99 44 callgsubr
58 80 -12.5 -76 callgsubr
-12 76 hintmask 01110110
427 569 -95 callgsubr
243 -569 rmoveto
hintmask 01110101
-23 callsubr
hintmask 10111001
-98 callsubr
                </CharString>
                <CharString name="wgrave">
                    37 callsubr
231 -20 hstemhm
58 80 278 76 hintmask 01111100
376 588 -94 callgsubr
16 -552 rmoveto
-23 callsubr
hintmask 10111100
-98 callsubr
                </CharString>
                <CharString name="x">
                    19 -21 23 44 callsubr
487 91 callgsubr
43 464 hintmask 10001100
415 -2 rmoveto
hintmask 00110100
90 5 -177 243 179 244 rlineto
-87 hlineto
-141 -199 rlineto
hintmask 01001100
-146 201 -89 -5 179 -243 -180 -244 rlineto
86 hlineto
142 198 rlineto
endchar
                </CharString>
                <CharString name="y">
                    20 callgsubr
70 -178 -75 callgsubr
                </CharString>
                <CharString name="yacute">
                    20 callgsubr
177 597 -107 callgsubr
-107 -775 -75 callgsubr
                </CharString>
                <CharString name="ycircumflex">
                    20 callgsubr
409 563 -101 callsubr
-206 -855 -75 callgsubr
                </CharString>
                <CharString name="ydieresis">
                    23 callsubr
100 44 callgsubr
132.5 -76 callgsubr
hintmask 10111100
434 572 -95 callgsubr
-62 -750 5 callgsubr
hintmask 11011100
-50 callsubr
hintmask 10111100
-72 callsubr
                </CharString>
                <CharString name="yen">
                    0 181 -60 60 94 60 285 91 callgsubr
234.5 80 hintmask 01101100
483 121 rmoveto
1 60 rlineto
-170 hlineto
-1 67 14 27 rlineto
157 60 -125 hlineto
hintmask 01110100
149 285 rlineto
-82 hlineto
-148 -303 rlineto
hintmask 01101100
-153 305 -87 -4 151 -283 rlineto
-126 -60 158 hlineto
15 -28 -1 -66 rlineto
-172 hlineto
-1 -60 rlineto
173 hlineto
hintmask 10101100
-1 -121 rlineto
81 hlineto
hintmask 01101100
-1 121 rlineto
endchar
                </CharString>
                <CharString name="ygrave">
                    23 callsubr
232 -20 hstemhm
42 464 hintmask 10111000
382 591 -94 callgsubr
-288 -733 5 callgsubr
hintmask 11011000
-50 callsubr
hintmask 10111000
-72 callsubr
                </CharString>
                <CharString name="z">
                    72 callsubr
hstem
73 413 vstem
480 hmoveto
-47 callsubr
                </CharString>
                <CharString name="zacute">
                    72 callsubr
hstem
73 413 vstem
179 -61 callgsubr
301 -594 rmoveto
-47 callsubr
                </CharString>
                <CharString name="zcaron">
                    72 callsubr
144 61 callsubr
73 413 hintmask 11101100
292 12 callgsubr
192 -555 rmoveto
-47 callsubr
                </CharString>
                <CharString name="zdotaccent">
                    72 callsubr
79 81 callgsubr
244.5 84 vstem
326 569 -50 callgsubr
237 -569 rmoveto
-47 callsubr
                </CharString>
                <CharString name="zero">
                    -16 callgsubr
-134 327 rmoveto
158 48 92 94 71 44 -58 -97 17 vhcurveto
-272 -142 rlineto
-1 15 -1 16 16 vvcurveto
141 -260 rmoveto
-70 -44 56 95 -18 hvcurveto
272 142 rlineto
1 -14 0 -14 -15 vvcurveto
-158 -46 -92 -95 vhcurveto
endchar
                </CharString>
                <CharString name="zero.alt">
                    -16 callgsubr
8 577 rmoveto
93 47 -100 -160 -158 -46 -92 -95 -93 -48 100 160 158 48 92 94 hvcurveto
endchar
                </CharString>
                <CharString name="zero.den">
                    -220 -23 callgsubr
-220 -85 callsubr
                </CharString>
                <CharString name="zero.inf">
                    -160 -23 callgsubr
-160 -85 callsubr
                </CharString>
                <CharString name="zero.num">
                    415 -23 callgsubr
415 -85 callsubr
                </CharString>
                <CharString name="zero.small">
                    -10 -23 callgsubr
-10 -85 callsubr
                </CharString>
                <CharString name="zero.sup">
                    315 -23 callgsubr
315 -85 callsubr
                </CharString>
                <CharString name="less_exclam_hyphen_hyphen.liga">
                    0 110 148 69 hstemhm
-884 114 -78 84 hintmask 11010000
-848 234 rmoveto
53 hlineto
2 87 25 264 4 91 rrcurveto
-103 hlineto
2 -91 17 -264 -87 vvcurveto
-342 311 rmoveto
-45 58 -329 -277 rlineto
-69 vlineto
332 -279 46 57 -268 223 rlineto
384 hlineto
6 69 rlineto
-389 hlineto
872 hmoveto
-69 1011 vlineto
6 69 rlineto
hintmask 11100000
-1321 -327 rmoveto
113 hlineto
3 110 rlineto
-114 hlineto
endchar
                </CharString>
                <CharString name="equal_equal_equal.liga">
                    40 69 153 69 153 69 hstem
-1022 1494 cntrmask 11100000
471 484 rmoveto
1 69 rlineto
-1494 -69 hlineto
1493 -222 rmoveto
1 69 rlineto
-1494 -69 hlineto
1493 -222 rmoveto
1 69 rlineto
-1494 -69 hlineto
endchar
                </CharString>
                <CharString name="equal_equal_greater.liga">
                    151 69 153 69 hstem
-1022 394 1019 74 vstem
138 602 rmoveto
-47 -58 124 -102 rlineto
-1237 -69 1321 hlineto
92 -76 rlineto
-10 vlineto
-81 -67 rlineto
-1332 -69 1249 hlineto
-140 -116 45 -57 333 280 rlineto
69 vlineto
endchar
                </CharString>
                <CharString name="equal_less_less.liga">
                    151 69 153 69 hstemhm
-1022 1486 -688 75 235 75 hintmask 11011000
-149 297 rmoveto
299 248 -45 58 -191 -161 rlineto
hintmask 11100000
-936 -69 854 hlineto
hintmask 11011000
-56 -47 rlineto
-69 vlineto
44 -37 rlineto
hintmask 11100000
-842 -69 924 hlineto
206 -173 46 57 rlineto
hintmask 11011000
-303 252 rlineto
310 hmoveto
10 vlineto
299 248 -45 58 -329 -277 rlineto
-69 vlineto
332 -279 rlineto
hintmask 11100000
46 57 rlineto
endchar
                </CharString>
                <CharString name="exclam_equal_equal.liga">
                    -189 915 -686 69 153 69 153 69 hstemhm
-1022 1494 -1012 534 cntrmask 01110000
hintmask 01111000
471 262 rmoveto
1 69 rlineto
-668 hlineto
80 153 rlineto
587 hlineto
1 69 rlineto
-552 hlineto
hintmask 01110100
74 141 rlineto
hintmask 10000100
-69 32 rlineto
hintmask 01110100
-91 -173 rlineto
-856 -69 820 hlineto
-80 -153 rlineto
-740 -69 703 hlineto
-80 -153 rlineto
-623 -69 587 hlineto
-105 -200 rlineto
hintmask 10000100
71 -29 rlineto
hintmask 01110100
120 229 rlineto
820 hlineto
1 69 rlineto
-785 hlineto
80 153 rlineto
endchar
                </CharString>
                <CharString name="greater_equal_greater.liga">
                    151 69 153 69 hstemhm
-1013 1478 -1174 74 1026 74 hintmask 11100000
138 602 rmoveto
-47 -58 124 -102 rlineto
-987 hlineto
-190 160 -47 -58 rlineto
hintmask 11010000
300 -247 rlineto
-10 vlineto
hintmask 11100000
-304 -252 45 -57 206 173 rlineto
989 hlineto
-140 -116 45 -57 333 280 rlineto
69 vlineto
hintmask 11001000
-74 -40 rmoveto
-81 -67 rlineto
-990 hlineto
hintmask 11010000
45 38 rlineto
69 vlineto
-55 46 rlineto
989 hlineto
hintmask 11001000
92 -76 rlineto
endchar
                </CharString>
                <CharString name="greater_greater_equal.liga">
                    151 69 153 69 hstemhm
-1013 1485 -1181 74 236 74 hintmask 11011000
-635 327 rmoveto
-327 275 -47 -58 300 -247 rlineto
-10 vlineto
hintmask 11100000
-304 -252 45 -57 rlineto
hintmask 11011000
333 280 rlineto
310 hmoveto
69 vlineto
-55 46 rlineto
hintmask 11100000
851 hlineto
1 69 rlineto
-934 hlineto
-190 160 -47 -58 rlineto
hintmask 11001000
300 -247 rlineto
-10 vlineto
-304 -252 45 -57 206 173 rlineto
hintmask 11100000
923 hlineto
1 69 rlineto
-842 hlineto
endchar
                </CharString>
                <CharString name="hyphen_hyphen_greater.liga">
                    258 69 hstem
-981 1446 vstem
138 602 rmoveto
-47 -58 264 -217 rlineto
-1336 -69 1337 hlineto
-269 -223 45 -57 333 280 rlineto
69 vlineto
endchar
                </CharString>
                <CharString name="less_equal_equal.liga">
                    151 69 153 69 hstemhm
-1014 75 -75 1486 hintmask 11100000
-939 287 rmoveto
10 vlineto
92 76 rlineto
hintmask 11010000
1318 hlineto
1 69 rlineto
-1236 hlineto
124 103 -45 58 -329 -277 rlineto
-69 vlineto
332 -279 46 57 -139 116 rlineto
1246 hlineto
1 69 rlineto
-1330 hlineto
endchar
                </CharString>
                <CharString name="less_equal_greater.liga">
                    151 69 153 69 hstemhm
-1014 75 -75 1479 -74 74 hintmask 11010000
138 602 rmoveto
-47 -58 124 -102 rlineto
-979 hlineto
124 103 -45 58 -329 -277 rlineto
-69 vlineto
332 -279 46 57 -139 116 rlineto
1002 hlineto
-140 -116 45 -57 333 280 rlineto
69 vlineto
hintmask 11001000
-74 -40 rmoveto
-81 -67 rlineto
-1168 hlineto
hintmask 11100000
-81 67 rlineto
10 vlineto
92 76 rlineto
1146 hlineto
hintmask 11001000
92 -76 rlineto
endchar
                </CharString>
                <CharString name="less_equal_less.liga">
                    151 69 153 69 hstemhm
-1014 75 -75 1478 -378 75 hintmask 11101000
418 -22 rmoveto
hintmask 11010000
46 57 -222 185 rlineto
hintmask 11101000
-81 67 rlineto
10 vlineto
299 248 -45 58 -191 -161 rlineto
-988 hlineto
124 103 -45 58 -329 -277 rlineto
-69 vlineto
332 -279 46 57 -139 116 rlineto
987 hlineto
-1070 69 rmoveto
-81 67 rlineto
10 vlineto
92 76 rlineto
989 hlineto
-56 -47 rlineto
-69 vlineto
44 -37 rlineto
endchar
                </CharString>
                <CharString name="less_hyphen_greater.liga">
                    258 69 hstem
-1014 1479 vstem
138 602 rmoveto
-47 -58 264 -217 rlineto
-1258 hlineto
263 218 -45 58 -329 -277 rlineto
-69 vlineto
332 -279 46 57 -268 223 rlineto
1260 hlineto
-269 -223 45 -57 333 280 rlineto
69 vlineto
endchar
                </CharString>
                <CharString name="less_hyphen_hyphen.liga">
                    258 69 hstem
-1014 1450 vstem
436 327 rmoveto
-1339 hlineto
263 218 -45 58 -329 -277 rlineto
-69 vlineto
332 -279 46 57 -268 223 rlineto
1334 hlineto
endchar
                </CharString>
                <CharString name="ampersand_ampersand.liga">
                    -12 67 501 76 hstemhm
-269 80 227 77 -4 80 hintmask 11110000
316 169 rmoveto
33 59 32 79 22 89 -70 9 rcurveline
-14 -68 -21 -66 -23 -54 rrcurveto
-119 136 -55 59 52 vvcurveto
54 42 46 163 -8 vhcurveto
-6 76 rlineto
-213 4 -66 -91 -86 vvcurveto
-43 20 -40 40 -52 vhcurveto
-79 -50 -44 -56 -8 -65 -14 16 rcurveline
33 59 32 79 22 89 -70 9 rcurveline
-14 -68 -21 -66 -23 -54 rrcurveto
-119 136 -55 59 52 vvcurveto
54 42 46 163 -8 vhcurveto
-6 76 rlineto
-213 4 -66 -91 -86 vvcurveto
-43 20 -40 40 -52 vhcurveto
-88 -56 -45 -63 -75 vvcurveto
-80 49 -62 95 64 64 34 77 51 vhcurveto
22 -27 47 -52 67 -22 rrcurveto
-6 17 20 -4 23 hhcurveto
64 -1 69 35 51 77 28 -34 31 -37 32 -41 65 51 rcurveline
-41 50 -37 43 -33 38 rrcurveto
-587 -114 rmoveto
-55 -29 39 53 47 28 49 59 42 hvcurveto
32 -38 41 -46 48 -57 rrcurveto
-61 -39 -43 -28 -42 hhcurveto
380 hmoveto
-55 -29 39 53 hvcurveto
hintmask 11101000
47 28 49 59 42 vhcurveto
32 -38 41 -46 48 -57 rrcurveto
-61 -39 -43 -28 -42 hhcurveto
endchar
                </CharString>
                <CharString name="bar_bar.liga">
                    -211 75 275 75 vstem
-136 710 rmoveto
-75 -6 rlineto
-886 75 vlineto
350 892 rmoveto
-75 -6 rlineto
-886 75 vlineto
endchar
                </CharString>
                <CharString name="bar_greater.liga">
                    -261 75 468 74 vstem
-186 710 rmoveto
-75 -6 rlineto
-886 75 vlineto
541 440 rlineto
69 vlineto
-74 -40 rmoveto
-467 -376 rlineto
709 vlineto
467 -323 rlineto
endchar
                </CharString>
                <CharString name="colon_equal.liga">
                    151 69 153 69 hstem
-297 658 vstem
-297 354 rmoveto
118 hlineto
2 117 rlineto
-119 hlineto
657 -98 rmoveto
1 69 rlineto
-424 -69 hlineto
-235 -245 rmoveto
118 hlineto
2 117 rlineto
-119 hlineto
657 -94 rmoveto
1 69 rlineto
-424 -69 hlineto
endchar
                </CharString>
                <CharString name="equal_equal.liga">
                    151 69 153 69 hstem
-472 944 vstem
471 373 rmoveto
1 69 rlineto
-944 -69 hlineto
943 -222 rmoveto
1 69 rlineto
-944 -69 hlineto
endchar
                </CharString>
                <CharString name="equal_greater.liga">
                    151 69 153 69 hstemhm
-472 937 -74 74 hintmask 11100000
138 602 rmoveto
-47 -58 124 -102 rlineto
-687 -69 771 hlineto
hintmask 11010000
92 -76 rlineto
-10 vlineto
-81 -67 rlineto
hintmask 11100000
-782 -69 699 hlineto
-140 -116 45 -57 333 280 rlineto
69 vlineto
endchar
                </CharString>
                <CharString name="exclam_equal.liga">
                    -189 915 -575 69 153 69 hstemhm
-472 944 -762 534 hintmask 00110000
76 373 rmoveto
395 hlineto
1 69 rlineto
-360 hlineto
hintmask 00101000
132 252 rlineto
hintmask 10001000
-69 32 rlineto
hintmask 00101000
-149 -284 rlineto
-498 -69 462 hlineto
hintmask 01101000
-81 -153 rlineto
-381 -69 345 hlineto
-163 -311 rlineto
hintmask 10001000
71 -29 rlineto
hintmask 01101000
178 340 rlineto
512 hlineto
1 69 rlineto
-477 hlineto
endchar
                </CharString>
                <CharString name="greater_equal.liga">
                    138 77 103 69 hstem
-308 615 vstem
-308 95 rmoveto
31 -64 584 287 rlineto
69 vlineto
-574 280 -37 -63 512 -247 rlineto
-10 vlineto
99 -209 rmoveto
77 vlineto
-615 -300 31 -64 rlineto
endchar
                </CharString>
                <CharString name="hyphen_greater.liga">
                    258 69 hstem
-431 896 vstem
138 602 rmoveto
-47 -58 264 -217 rlineto
-786 -69 787 hlineto
-269 -223 45 -57 333 280 rlineto
69 vlineto
endchar
                </CharString>
                <CharString name="hyphen_hyphen.liga">
                    258 69 hstem
-341 317 63 317 vstem
-30 258 rmoveto
6 69 rlineto
-317 -69 hlineto
691 hmoveto
6 69 rlineto
-317 -69 hlineto
endchar
                </CharString>
                <CharString name="less_bar.liga">
                    -354 75 450 75 vstem
169 704 rmoveto
-523 -378 rlineto
-69 vlineto
523 -439 rlineto
75 892 hlineto
-523 -423 rmoveto
10 vlineto
448 317 rlineto
-700 vlineto
endchar
                </CharString>
                <CharString name="less_equal.liga">
                    138 77 103 69 hstem
-303 615 vstem
312 95 rmoveto
-516 252 rlineto
10 vlineto
512 247 -37 63 -574 -280 rlineto
-69 vlineto
584 -287 rlineto
-584 107 rmoveto
584 -287 31 64 -615 300 rlineto
endchar
                </CharString>
                <CharString name="less_hyphen.liga">
                    258 69 hstem
-464 900 vstem
436 327 rmoveto
-789 hlineto
263 218 -45 58 -329 -277 rlineto
-69 vlineto
332 -279 46 57 -268 223 rlineto
784 hlineto
endchar
                </CharString>
                <CharString name="less_slash.liga">
                    -189 915 hstem
-464 75 182 534 vstem
258 726 rmoveto
-357 -680 -290 241 rlineto
10 vlineto
299 248 -45 58 -329 -277 rlineto
-69 vlineto
330 -277 -73 -140 71 -29 463 883 rlineto
endchar
                </CharString>
                <CharString name="plus_plus.liga">
                    259 68 hstem
-250 73 352 73 vstem
248 327 rmoveto
187 -73 -187 -352 187 -73 -187 -178 -68 178 -187 73 187 352 -187 73 187 176 vlineto
1 68 rlineto
endchar
                </CharString>
                <CharString name="question_question.liga">
                    0 109 493 76 hstem
-304 111 110 86 73 111 110 86 vstem
-387 678 rmoveto
-8 -76 rlineto
252 -16 60 -40 -47 vvcurveto
-72 -180 -55 -8 -143 vhcurveto
57 -1 rlineto
14 129 203 51 110 vvcurveto
79 -88 65 -302 16 vhcurveto
380 hmoveto
-8 -76 rlineto
252 -16 60 -40 -47 vvcurveto
-72 -180 -55 -8 -143 vhcurveto
57 -1 rlineto
14 129 203 51 110 vvcurveto
79 -88 65 -302 16 vhcurveto
-298 -678 rmoveto
110 hlineto
3 109 rlineto
-111 hlineto
378 -109 rmoveto
110 hlineto
3 109 rlineto
-111 hlineto
endchar
                </CharString>
                <CharString name="slash_greater.liga">
                    -189 915 hstem
-347 534 204 74 vstem
139 602 rmoveto
48 92 -69 32 -465 -886 71 -29 379 723 288 -237 rlineto
-10 vlineto
-304 -252 45 -57 333 280 rlineto
69 vlineto
endchar
                </CharString>
                <CharString name="underscore_underscore.liga">
                    -116 66 hstem
-560 1120 vstem
560 -50 rmoveto
-1120 -66 1120 hlineto
endchar
                </CharString>
                <CharString name="LIG">
                    endchar
                </CharString>
                <CharString name="uniE0A0">
                    -59 53 160 104 264 54 53 53 hstemhm
6 53 0 105 0 53 106 53 0 105 0 53 hintmask 1111010101000000
428 576 rmoveto
-58 -47 -47 -60 hvcurveto
hintmask 1111010010000000
-38 22 -34 31 -18 vhcurveto
-15 vlineto
-53 -53 -53 -53 -44 -34 -9 -15 -28 vhcurveto
251 vlineto
hintmask 1111101101000000
31 17 22 34 40 vvcurveto
58 -47 48 -58 -60 -46 -48 -58 vhcurveto
hintmask 1111010101000000
-40 21 -34 32 -17 vhcurveto
-347 vlineto
hintmask 1111101010000000
-32 -17 -21 -34 -40 vvcurveto
-58 46 -48 60 58 47 48 58 29 -11 25 -17 19 vhcurveto
18 16 24 16 41 hhcurveto
106 105 105 106 hvcurveto
14 vlineto
hintmask 1111010101000000
32 19 21 34 38 vvcurveto
59 -46 47 -60 vhcurveto
hintmask 1111101101000000
-316 53 rmoveto
28 24 -24 -29 -30 -24 -24 -28 -30 -23 24 30 29 23 24 30 hvcurveto
316 -212 rmoveto
-28 -24 24 28 30 24 23 28 30 23 -23 -30 -28 -23 -24 -30 hvcurveto
-316 -423 rmoveto
-30 -23 23 30 29 23 24 30 28 24 -24 -29 -30 -24 -23 -28 hvcurveto
endchar
                </CharString>
                <CharString name="uniE0B0">
                    -205 1099 hstem
-20 629 vstem
609 313 rmoveto
-627 581 -2 -1099 rlineto
endchar
                </CharString>
                <CharString name="uniE0B2">
                    -205 1099 hstem
-20 629 vstem
-20 313 rmoveto
629 -518 -2 1099 rlineto
endchar
                </CharString>
            <CharString index="0">
                rmoveto
23 -36 68 33 108 65 59 53 rlinecurve
-65 63 -48 -57 -87 -81 -58 -40 rlinecurve
return
            </CharString>
            <CharString index="1">
                rmoveto
54 -51 45 -163 15 vhcurveto
8 95 70 callsubr
hlineto
6 57 rlineto
-248 hlineto
-15 -198 rlineto
159 -11 54 -25 -33 vvcurveto
-42 -59 -25 -164 -11 vhcurveto
4 -61 rlineto
194 13 87 55 72 vvcurveto
return
            </CharString>
            <CharString index="2">
                rmoveto
126 105 106 162 157 -86 92 -122 -126 -106 -108 -159 -158 88 -92 121 hvcurveto
13 67 rmoveto
-83 -57 70 128 120 56 66 80 84 57 -71 -127 -121 -56 -65 -81 hvcurveto
endchar
            </CharString>
            <CharString index="3">
                -86 callgsubr
hintmask 01011111
43 callgsubr
hintmask 00111111
-102 callgsubr
hintmask 10011111
-45 callsubr
hintmask 01011111
-33 callsubr
            </CharString>
            <CharString index="4">
                -4 70 -4 69 102 vvcurveto
189 -76 59 -283 8 vhcurveto
-9 -70 219 -8 62 -29 7 -113 rlinecurve
-217 13 -100 -76 -101 vvcurveto
return
            </CharString>
            <CharString index="5">
                75 callsubr
-103 callgsubr
return
            </CharString>
            <CharString index="6">
                rmoveto
127 77 80 139 hvcurveto
-44 callgsubr
-74 -45 47 102 vhcurveto
414 -84 -420 vlineto
-139 73 -76 122 vhcurveto
endchar
            </CharString>
            <CharString index="7">
                5 55 rlineto
-114 356 hlineto
-64 -5 rlineto
-60 vlineto
-120 -16 2 -48 118 7 rlineto
-234 -125 -55 vlineto
return
            </CharString>
            <CharString index="8">
                rmoveto
270 14 67 104 169 vvcurveto
57 0 268 -1 39 vhcurveto
15 -49 -46 8 -48 hhcurveto
-140 -121 -98 -158 -129 79 -78 106 58 47 21 27 35 hvcurveto
-2 -139 -31 -28 -232 -18 rrcurveto
155 202 rmoveto
-77 -58 53 108 109 66 59 86 31 30 -6 -9 32 hvcurveto
-1 -76 1 -137 -67 vvcurveto
-20 -32 -39 -14 -39 hhcurveto
endchar
            </CharString>
            <CharString index="9">
                -237 6 -73 44 -8 116 rlinecurve
335 8 rlineto
162 18 -68 108 -134 hhcurveto
-127 -104 -115 -149 return
            </CharString>
            <CharString index="10">
                2 -17 callsubr
-83 hlineto
-1 -136 rlineto
return
            </CharString>
            <CharString index="11">
                rmoveto
hintmask 00111110
-70 callsubr
hintmask 01011110
-92 callgsubr
hintmask 10011110
-20 callsubr
hintmask 00111110
-94 callsubr
            </CharString>
            <CharString index="12">
                rmoveto
-97 callgsubr
-80 callsubr
return
            </CharString>
            <CharString index="13">
                rmoveto
-55 42 -92 84 -50 54 -60 -67 rcurveline
62 -49 103 -65 68 -35 rrcurveto
return
            </CharString>
            <CharString index="14">
                -81 callgsubr
-74 -148 -46 callsubr
return
            </CharString>
            <CharString index="15">
                -65 -209 -59 -206 -57 -207 rrcurveto
83 hlineto
17 63 16 64 17 63 rrcurveto
209 hlineto
return
            </CharString>
            <CharString index="16">
                rmoveto
-41 callsubr
hintmask 11011000
-32 callgsubr
hintmask 11100100
-21 callsubr
hintmask 11011000
-87 callsubr
hintmask 11100100
-91 callsubr
            </CharString>
            <CharString index="17">
                rmoveto
8 hlineto
29 -99 27 -100 27 -99 rrcurveto
-175 hlineto
28 99 27 99 29 100 rrcurveto
endchar
            </CharString>
            <CharString index="18">
                rmoveto
-45 callgsubr
-74 callgsubr
return
            </CharString>
            <CharString index="19">
                rmoveto
82 39 -59 -94 1 hvcurveto
-69 -2 -134 -4 -56 -2 rrcurveto
105 6 50 56 81 hhcurveto
endchar
            </CharString>
            <CharString index="20">
                rmoveto
hintmask 00101011
75 -61 callsubr
hintmask 10000111
-83 callgsubr
hintmask 10010011
-73 callgsubr
            </CharString>
            <CharString index="21">
                rmoveto
-75 callsubr
-30 -38 -52 -23 -49 hhcurveto
return
            </CharString>
            <CharString index="22">
                rmoveto
-65 callgsubr
hintmask 11100000
-92 callsubr
hintmask 11010000
-66 callsubr
endchar
            </CharString>
            <CharString index="23">
                -77 callgsubr
373 hlineto
endchar
            </CharString>
            <CharString index="24">
                -172 2 -128 2 -88 vhcurveto
-27 -37 -41 -18 -47 hhcurveto
-61 -36 32 96 hvcurveto
308 vlineto
return
            </CharString>
            <CharString index="25">
                rmoveto
39 -26 52 52 62 78 34 56 rlinecurve
-81 39 -23 -58 -45 -86 -38 -55 rlinecurve
208 -2 rmoveto
39 -24 53 52 61 77 35 56 rlinecurve
-84 35 -23 -59 -43 -81 -38 -56 rlinecurve
return
            </CharString>
            <CharString index="26">
                433 425 -99 callsubr
return
            </CharString>
            <CharString index="27">
                361 -413 -105 callsubr
            </CharString>
            <CharString index="28">
                -23 callsubr
hintmask 10111000
-98 callsubr
            </CharString>
            <CharString index="29">
                45 118 63 116 76 112 rrcurveto
56 -296 vlineto
-5 -58 rlineto
232 hlineto
2 -3 -78 -110 -62 -110 -45 -113 rlinecurve
return
            </CharString>
            <CharString index="30">
                -298 211 253 63 -253 204 293 71 -376 -620 return
            </CharString>
            <CharString index="31">
                -53 callsubr
137.5 -53 callsubr
return
            </CharString>
            <CharString index="32">
                5 callgsubr
hintmask 11010000
-50 callsubr
hintmask 10110000
-72 callsubr
            </CharString>
            <CharString index="33">
                -42 -41 101 -64 hhcurveto
-51 -46 -54 -85 -35 hvcurveto
45 -20 rlineto
58 27 25 34 26 42 41 -100 64 hhcurveto
return
            </CharString>
            <CharString index="34">
                -32 callsubr
57 -49 87 70 52 32 34 41 vhcurveto
endchar
            </CharString>
            <CharString index="35">
                rmoveto
176 151 -41 40 -131 -112 return
            </CharString>
            <CharString index="36">
                695 -104 callsubr
return
            </CharString>
            <CharString index="37">
                rmoveto
-150 83 -111 297 20 vhcurveto
9 68 rlineto
-62 callsubr
endchar
            </CharString>
            <CharString index="38">
                rmoveto
167 49 85 93 38 31 -14 -28 24 vhcurveto
-209 -380 rlineto
-17 43 -9 56 71 vvcurveto
148 -260 rmoveto
-38 -32 14 28 -23 hvcurveto
209 380 rlineto
17 -42 9 -57 -71 vvcurveto
-167 -50 -85 -92 vhcurveto
-14 -69 -49 callgsubr
hintmask 10011100
101 -20 79 -38 53 vhcurveto
39 71 rlineto
hintmask 01101100
-53 28 -29 -56 rlineto
23 -32 -39 12 -46 hhcurveto
-147 -93 -120 -219 -102 21 -79 39 -53 hvcurveto
-39 -70 rlineto
hintmask 10101100
52 -28 30 55 rlineto
-22 32 38 -12 45 hhcurveto
endchar
            </CharString>
            <CharString index="39">
                rmoveto
-95 callsubr
endchar
            </CharString>
            <CharString index="40">
                -40 callgsubr
hintmask 10111000
-34 callgsubr
hintmask 11011000
-24 callgsubr
endchar
            </CharString>
            <CharString index="41">
                -59 callsubr
-24 -712 -104 callgsubr
            </CharString>
            <CharString index="42">
                207 6 77 53 66 vvcurveto
47 -46 39 -129 20 vhcurveto
return
            </CharString>
            <CharString index="43">
                6 62 rlineto
-73 callsubr
            </CharString>
            <CharString index="44">
                -184 428 -258 hlineto
-6 -57 183 -8 rlineto
-363 return
            </CharString>
            <CharString index="45">
                -59 callsubr
hintmask 10011110
158 -893 -96 callgsubr
            </CharString>
            <CharString index="46">
                594 -107 callgsubr
return
            </CharString>
            <CharString index="47">
                206 vlineto
hintmask 11010000
-11 callgsubr
hintmask 10110000
-31 callgsubr
            </CharString>
            <CharString index="48">
                13 68 52 47 125 45 -23 55 rcurveline
-157 -57 -75 -91 -113 vvcurveto
return
            </CharString>
            <CharString index="49">
                60 26 34 32 47 vvcurveto
58 -60 38 -79 -98 -53 -55 -51 return
            </CharString>
            <CharString index="50">
                41 -13 55 64 19 79 -9 67 rlinecurve
return
            </CharString>
            <CharString index="51">
                -619 83 226 vlineto
127 4 rlineto
-127 325 rmoveto
151 22 65 -53 -90 vvcurveto
-63 -33 -48 -48 -32 vhcurveto
-135 -4 rlineto
return
            </CharString>
            <CharString index="52">
                -12 64 -34 -21 26 -21 223 54 150 70 return
            </CharString>
            <CharString index="53">
                -5 113 -2 160 214 vvcurveto
-81 hlineto
return
            </CharString>
            <CharString index="54">
                -12 -56 callsubr
return
            </CharString>
            <CharString index="55">
                690 -101 callsubr
return
            </CharString>
            <CharString index="56">
                -250 19 -84 -80 -78 -123 274 -14 -87 vvcurveto
-44 -61 -36 -214 17 vhcurveto
-3 -72 rlineto
return
            </CharString>
            <CharString index="57">
                rmoveto
5 -17 callsubr
-85 hlineto
-3 -136 rlineto
return
            </CharString>
            <CharString index="58">
                rmoveto
147 94 121 218 -1 hvcurveto
return
            </CharString>
            <CharString index="59">
                rmoveto
hintmask 00111111
-70 callsubr
hintmask 01011111
-92 callgsubr
hintmask 10011111
-20 callsubr
hintmask 00111111
-94 callsubr
            </CharString>
            <CharString index="60">
                7 73 -330 -1 323 477 rlineto
71 -404 vlineto
-6 -73 321 1 -325 -477 rlineto
-71 vlineto
endchar
            </CharString>
            <CharString index="61">
                -37 callgsubr
120 -58 49 -88 return
            </CharString>
            <CharString index="62">
                50 46 54 85 36 hvcurveto
-46 20 rlineto
-59 -27 -25 -34 -25 return
            </CharString>
            <CharString index="63">
                416 -83 -429 vlineto
-94 -37 -40 -76 return
            </CharString>
            <CharString index="64">
                -57 207 -59 204 -65 208 return
            </CharString>
            <CharString index="65">
                rmoveto
37 -13 60 89 16 79 -11 83 rlinecurve
-91 -1 19 -75 7 -73 -37 -89 rlinecurve
return
            </CharString>
            <CharString index="66">
                154 66 -390 -66 153 -488 return
            </CharString>
            <CharString index="67">
                -46 callgsubr
-70 -53 -31 -34 -41 vhcurveto
return
            </CharString>
            <CharString index="68">
                -27 callgsubr
-361 -277 -46 callsubr
return
            </CharString>
            <CharString index="69">
                -4 callsubr
hintmask 10110000
-15 callgsubr
hintmask 11010000
-49 callsubr
return
            </CharString>
            <CharString index="70">
                rmoveto
62 37 -33 -94 hvcurveto
-305 81 332 vlineto
return
            </CharString>
            <CharString index="71">
                55 230.5 123 return
            </CharString>
            <CharString index="72">
                3 -472 rlineto
-4 hlineto
-225 472 rlineto
-87 -620 77 hlineto
return
            </CharString>
            <CharString index="73">
                -5 56 -75 -5 rlineto
5 10 callsubr
81 hlineto
return
            </CharString>
            <CharString index="74">
                -133 113 -51 -49 return
            </CharString>
            <CharString index="75">
                -58 callgsubr
5 callsubr
return
            </CharString>
            <CharString index="76">
                -156 336 -89 -4 201 -412 rlineto
-206 vlineto
endchar
            </CharString>
            <CharString index="77">
                -36 callgsubr
hstem
260 64 vstem
433 return
            </CharString>
            <CharString index="78">
                -14 callsubr
-70 -148 -46 callsubr
return
            </CharString>
            <CharString index="79">
                -53 callgsubr
7 callsubr
return
            </CharString>
            <CharString index="80">
                422 554 -106 callgsubr
return
            </CharString>
            <CharString index="81">
                71 211 63 204 71 return
            </CharString>
            <CharString index="82">
                57 hstem
-34 callsubr
148 62 vstem
422 return
            </CharString>
            <CharString index="83">
                171 -2 129 -2 89 vhcurveto
26 38 41 17 47 hhcurveto
return
            </CharString>
            <CharString index="84">
                55 304 55 hstem
109 66 200 66 vstem
269 return
            </CharString>
            <CharString index="85">
                -11 69 170 54 153 67 return
            </CharString>
            <CharString index="86">
                11 -21 31 44 callsubr
225 61 271 70 -11 -20 hstemhm
92 83 return
            </CharString>
            <CharString index="87">
                6 callgsubr
162 62 -59 67 return
            </CharString>
            <CharString index="88">
                rmoveto
-216 -177 -87 -147 -145 vvcurveto
-142 85 -144 214 -176 vhcurveto
56 51 rlineto
-201 159 -74 128 127 vvcurveto
127 73 128 205 160 vhcurveto
endchar
            </CharString>
            <CharString index="89">
                rmoveto
217 178 86 147 145 vvcurveto
141 -85 144 -214 177 vhcurveto
-55 -53 rlineto
200 -158 74 -128 -126 vvcurveto
-128 -73 -127 -205 -161 vhcurveto
endchar
            </CharString>
            <CharString index="90">
                699 -50 callgsubr
return
            </CharString>
            <CharString index="91">
                -12 67 510 67 hstem
56 78 282 79 vstem
268 -12 rmoveto
139 88 132 199 196 -74 117 -139 -139 -87 -131 -200 -195 74 -118 138 hvcurveto
return
            </CharString>
            <CharString index="92">
                54 35 71 22 100 8 -4 86 rcurveline
-101 -12 -75 -40 -48 -50 rrcurveto
return
            </CharString>
            <CharString index="93">
                176 -143 rlineto
return
            </CharString>
            <CharString index="94">
                0 8 -2 3 -4 -4 -2 -3 43 callsubr
0 -9 2 -3 4 4 2 3 43 callsubr
return
            </CharString>
            <CharString index="95">
                0 -10 callsubr
vstem
return
            </CharString>
            <CharString index="96">
                199 414 rlineto
-86 hlineto
-153 -334 rlineto
return
            </CharString>
            <CharString index="97">
                24 callsubr
-1 callsubr
return
            </CharString>
            <CharString index="98">
                130 56 147 34 callgsubr
return
            </CharString>
            <CharString index="99">
                61 288 -25 callgsubr
return
            </CharString>
            <CharString index="100">
                rmoveto
29 hlineto
53 199 rlineto
3 hlineto
-1 -253 rlineto
52 329 -64 hlineto
-55 -200 rlineto
-2 hlineto
-59 200 rlineto
-63 -329 50 hlineto
-1 253 rlineto
3 hlineto
return
            </CharString>
            <CharString index="101">
                -21 callgsubr
216 82 return
            </CharString>
            <CharString index="102">
                45 153 53 hstem
120 61 185 63 vstem
197 return
            </CharString>
            <CharString index="103">
                0 62 366.5 11 callsubr
18 -20 return
            </CharString>
            <CharString index="104">
                11 callsubr
-58 -20 hstemhm
237 82 return
            </CharString>
            <CharString index="105">
                8 71 rlineto
-301 549 -84 -620 hlineto
return
            </CharString>
            <CharString index="106">
                hstem
55 82 277 81 vstem
return
            </CharString>
            <CharString index="107">
                hstem
75 84 232 83 vstem
return
            </CharString>
            <CharString index="108">
                21 -21 620 91 callgsubr
234 84 hintmask 10110000
return
            </CharString>
            <CharString index="109">
                -3 callsubr
83 55 return
            </CharString>
            <CharString index="110">
                -4 callgsubr
hstemhm
197 79 return
            </CharString>
            <CharString index="111">
                151 -7 rlineto
-571 -159 -62 vlineto
return
            </CharString>
            <CharString index="112">
                rmoveto
166 20 47 46 66 173 rrcurveto
return
            </CharString>
            <CharString index="113">
                hstemhm
123 64 -57 66 return
            </CharString>
            <CharString index="114">
                74 callgsubr
238 79 return
            </CharString>
            <CharString index="115">
                82 hintmask 11010000
472 hmoveto
17 callgsubr
return
            </CharString>
            <CharString index="116">
                0 106 514 -20 hstem
51 82 289 78 vstem
return
            </CharString>
            <CharString index="117">
                27 callgsubr
-1 callgsubr
return
            </CharString>
            <CharString index="118">
                91 callsubr
259 79 vstem
return
            </CharString>
            <CharString index="119">
                555 -72 callgsubr
rlineto
hintmask 11110100
-33 callgsubr
rlineto
hintmask 11101100
-14 callgsubr
return
            </CharString>
            <CharString index="120">
                rmoveto
191 71 -463 hlineto
-7 -71 rlineto
195 -549 84 hlineto
return
            </CharString>
            <CharString index="121">
                54 callgsubr
hstem
347 66 vstem
426 return
            </CharString>
            <CharString index="122">
                18 callgsubr
hstemhm
88 81 221 81 hintmask 11011000
return
            </CharString>
            <CharString index="123">
                vstem
490 hmoveto
-2 callgsubr
return
            </CharString>
            <CharString index="124">
                4 callsubr
hintmask 10110000
-7 -58 rlineto
hintmask 11010000
4 callgsubr
return
            </CharString>
            <CharString index="125">
                21 -21 432 69 -9 -20 return
            </CharString>
            <CharString index="126">
                47 93 44 78 vvcurveto
74 -78 46 -226 73 vhcurveto
-28 -66 rlineto
175 -53 76 -38 -54 -58 -89 -42 -63 vvcurveto
return
            </CharString>
            <CharString index="127">
                23 callsubr
hstemhm
42 464 hintmask 10110000
return
            </CharString>
            <CharString index="128">
                75 callgsubr
-136 -93 vlineto
-8 -63 rlineto
101 -270 hlineto
return
            </CharString>
            <CharString index="129">
                278 -42 138 122 243 vvcurveto
return
            </CharString>
            <CharString index="130">
                0 -26 callgsubr
return
            </CharString>
            <CharString index="131">
                58 hstemhm
131 301 -68 68 return
            </CharString>
            <CharString index="132">
                0 62 367 61 return
            </CharString>
            <CharString index="133">
                -59 56 -40 88 vhcurveto
return
            </CharString>
            <CharString index="134">
                -14 67 384 66 return
            </CharString>
            <CharString index="135">
                rmoveto
244 221 5 82 -243 221 -54 -56 232 -207 -238 -204 rlineto
endchar
            </CharString>
            <CharString index="136">
                91 11 -212 312 197 303 rlineto
-89 hlineto
-173 -273 rlineto
-68 273 -83 hlineto
return
            </CharString>
            <CharString index="137">
                7 callsubr
hintmask 1000011110000000
return
            </CharString>
            <CharString index="138">
                -59 49 -169 -220 -4 -81 rlineto
return
            </CharString>
            <CharString index="139">
                -221 61 168 -21 141 57 return
            </CharString>
            <CharString index="140">
                0 71 549 53 callgsubr
return
            </CharString>
            <CharString index="141">
                60.5 return
            </CharString>
            <CharString index="142">
                15 -21 27 -21 27 -21 213 60 207 -20 26 -20 227 38 callgsubr
101 81 return
            </CharString>
            <CharString index="143">
                rmoveto
54 56 -232 207 238 205 -54 56 -244 -221 -5 -81 rlineto
endchar
            </CharString>
            <CharString index="144">
                122 15 61 39 50 vvcurveto
return
            </CharString>
            <CharString index="145">
                -20 27 -20 hstemhm
return
            </CharString>
            <CharString index="146">
                -25 callsubr
hintmask 11010000
return
            </CharString>
            <CharString index="147">
                0 -9 -7 -7 -9 -9 -7 6 43 callsubr
return
            </CharString>
            <CharString index="148">
                0 9 7 6 9 9 7 -6 43 callsubr
return
            </CharString>
            <CharString index="149">
                -183 -76 -86 -174 26 vhcurveto
return
            </CharString>
            <CharString index="150">
                150 -55 rmoveto
return
            </CharString>
            <CharString index="151">
                136 hstemhm
return
            </CharString>
            <CharString index="152">
                rmoveto
-41 13 -55 -64 -19 -79 9 -67 rlinecurve
100 5 -22 58 -5 64 33 70 rlinecurve
return
            </CharString>
            <CharString index="153">
                rmoveto
-3 -66 rlineto
328 873 -326 -66 249 -741 hlineto
endchar
            </CharString>
            <CharString index="154">
                -4 68 362 68 -68 71 hstemhm
103 82 return
            </CharString>
            <CharString index="155">
                hstemhm
36 478 return
            </CharString>
            <CharString index="156">
                -15 69 -41 -21 574 69 -7 -20 hstemhm
46 84 290 84 hintmask 10101100
return
            </CharString>
            <CharString index="157">
                hintmask 000000000000000010000010000000000000000000000000
return
            </CharString>
            <CharString index="158">
                75.5 return
            </CharString>
            <CharString index="159">
                64.5 return
            </CharString>
            <CharString index="160">
                -20 hstem
113 84 return
            </CharString>
            <CharString index="161">
                57 289 58 return
            </CharString>
            <CharString index="162">
                -23 -44 -29 -48 -47 108 -78 hhcurveto
-58 -41 -53 -102 -38 hvcurveto
return
            </CharString>
            <CharString index="163">
                -83 6 -51 -75 -53 -69 -58 -68 rlinecurve
-76 -2 rlineto
428 vlineto
return
            </CharString>
            <CharString index="164">
                332 569 rmoveto
9 -17 callsubr
-86 hlineto
-6 -136 rlineto
return
            </CharString>
            <CharString index="165">
                -20 22 -20 return
            </CharString>
            <CharString index="166">
                rmoveto
65 callgsubr
            </CharString>
            <CharString index="167">
                -121 71 -47 212 3 vhcurveto
return
            </CharString>
            <CharString index="168">
                116 63 callgsubr
return
            </CharString>
            <CharString index="169">
                79 620 -78 hlineto
return
            </CharString>
            <CharString index="170">
                rlineto
-119 hlineto
return
            </CharString>
            <CharString index="171">
                rmoveto
-44 callsubr
return
            </CharString>
            <CharString index="172">
                -2 callgsubr
endchar
            </CharString>
            <CharString index="173">
                41 callsubr
224 85 vstem
return
            </CharString>
            <CharString index="174">
                -85 8 80 callgsubr
24 29 30 102 48 vhcurveto
return
            </CharString>
            <CharString index="175">
                -6 2 -3 5 4 2 2 4 1 vhcurveto
5 hlineto
return
            </CharString>
            <CharString index="176">
                -9 callsubr
148 return
            </CharString>
            <CharString index="177">
                -3 71 -50 -21 551 80 return
            </CharString>
            <CharString index="178">
                84.5 -81.5 81 return
            </CharString>
            <CharString index="179">
                hlineto
17 172 rlineto
-59 hlineto
-17 -172 rlineto
return
            </CharString>
            <CharString index="180">
                -4 68 356 77 return
            </CharString>
            <CharString index="181">
                hstemhm
67 80 return
            </CharString>
            <CharString index="182">
                -81 -7 rlineto
return
            </CharString>
            <CharString index="183">
                66 741 66 hstem
337 77 vstem
89 return
            </CharString>
            <CharString index="184">
                117 63 callgsubr
-1 -117 rlineto
return
            </CharString>
            <CharString index="185">
                21 -21 549 71 hstem
234 84 vstem
return
            </CharString>
            <CharString index="186">
                102 88 -93 -164 -166 -87 -93 -106 return
            </CharString>
            <CharString index="187">
                -32 16 24 vvcurveto
return
            </CharString>
            <CharString index="188">
                136 hstem
return
            </CharString>
            <CharString index="189">
                932 hstem
359 80 vstem
136 return
            </CharString>
            <CharString index="190">
                931 hstem
111 80 vstem
414 return
            </CharString>
            <CharString index="191">
                -175 3 2 159 -79 1 rlineto
return
            </CharString>
            <CharString index="192">
                hstem
105 83 return
            </CharString>
            <CharString index="193">
                48 vstem
42 304 rmoveto
-186 return
            </CharString>
            <CharString index="194">
                hstem
122 303 vstem
176 return
            </CharString>
            <CharString index="195">
                60 167 -20 143 56 hstemhm
return
            </CharString>
            <CharString index="196">
                50 -35 135 -11 vhcurveto
endchar
            </CharString>
            <CharString index="197">
                hintmask 1001001110000000
return
            </CharString>
            <CharString index="198">
                58 callgsubr
hstemhm
return
            </CharString>
            <CharString index="199">
                66 34 67 return
            </CharString>
</ttFont>
